<svg width="134" height="135" viewBox="0 0 134 135" fill="none" xmlns="http://www.w3.org/2000/svg">
<rect x="3" y="89" width="13" height="46" rx="5" fill="#E4AB00"/>
<rect x="23" y="71" width="13" height="64" rx="5" fill="#E4AB00"/>
<rect x="84" y="71" width="13" height="64" rx="5" fill="#E4AB00"/>
<rect x="42" y="79" width="13" height="56" rx="5" fill="#E4AB00"/>
<rect x="63" y="60" width="13" height="75" rx="5" fill="#E4AB00"/>
<rect x="105" y="47" width="13" height="88" rx="5" fill="#E4AB00"/>
<path d="M3 72L24.1887 52.1584C25.872 50.5821 28.4151 50.3615 30.3446 51.6245L44.1488 60.6601C46.343 62.0963 49.274 61.5932 50.8637 59.5075L63.5585 42.8518C65.1847 40.7182 68.205 40.2482 70.4027 41.7867L85.7022 52.4977C88.047 54.1393 91.2886 53.4811 92.8076 51.0552L111 22" stroke="#E4AB00" stroke-width="7"/>
<path d="M115.358 9.39039C117.189 8.54325 119.318 9.70911 119.59 11.7084L121.386 24.8943C121.718 27.3341 119.132 29.1131 116.972 27.9303L103.099 20.3316C100.939 19.1487 101.045 16.0115 103.28 14.9777L115.358 9.39039Z" fill="#E4AB00"/>
</svg>
