<svg width="58" height="58" viewBox="0 0 58 58" fill="none" xmlns="http://www.w3.org/2000/svg">
<g filter="url(#filter0_d_205_80)">
<circle cx="29" cy="25" r="25" fill="#E47444"/>
</g>
<g clip-path="url(#clip0_205_80)">
<path d="M13 25C13 16.1776 20.1776 9 29 9C32.5631 9 35.9356 10.1464 38.753 12.3152L35.0349 17.1451C33.2929 15.8041 31.206 15.0952 29 15.0952C23.5385 15.0952 19.0952 19.5385 19.0952 25C19.0952 30.4615 23.5385 34.9048 29 34.9048C33.3988 34.9048 37.1368 32.0228 38.4251 28.0476H29V21.9524H45V25C45 33.8224 37.8224 41 29 41C20.1776 41 13 33.8224 13 25Z" fill="#FFF7DF"/>
</g>
<defs>
<filter id="filter0_d_205_80" x="0" y="0" width="58" height="58" filterUnits="userSpaceOnUse" color-interpolation-filters="sRGB">
<feFlood flood-opacity="0" result="BackgroundImageFix"/>
<feColorMatrix in="SourceAlpha" type="matrix" values="0 0 0 0 0 0 0 0 0 0 0 0 0 0 0 0 0 0 127 0" result="hardAlpha"/>
<feOffset dy="4"/>
<feGaussianBlur stdDeviation="2"/>
<feComposite in2="hardAlpha" operator="out"/>
<feColorMatrix type="matrix" values="0 0 0 0 0 0 0 0 0 0 0 0 0 0 0 0 0 0 0.25 0"/>
<feBlend mode="normal" in2="BackgroundImageFix" result="effect1_dropShadow_205_80"/>
<feBlend mode="normal" in="SourceGraphic" in2="effect1_dropShadow_205_80" result="shape"/>
</filter>
<clipPath id="clip0_205_80">
<rect width="32" height="32" fill="white" transform="translate(13 9)"/>
</clipPath>
</defs>
</svg>
