<svg width="308" height="112" viewBox="0 0 308 112" fill="none" xmlns="http://www.w3.org/2000/svg">
<path d="M69.7511 96.9352H28.8986C23.7321 96.9352 -2.38197 115.521 3.99716 107.484C10.3763 99.4468 10.3764 83.48 10.3764 78.4185V21.0167C10.3764 10.7902 18.6691 2.5 28.8986 2.5H83" stroke="#372900" stroke-width="5"/>
<path d="M157.228 16.2778C160.63 19.232 160.839 23.1702 160.839 23.1702C160.839 23.1702 161.737 19.232 165.228 16.2778C168.63 13.3237 172.521 12.2494 172.521 12.2494C172.521 12.2494 169.63 11.1243 166.228 8.17017C162.826 5.30552 160.839 1.67017 160.839 1.67017C160.839 1.67017 159.13 5.216 155.728 8.17017C152.237 11.1243 149.156 12.3837 149.156 12.3837C149.156 12.3837 153.826 13.4132 157.228 16.2778Z" fill="#372900"/>
<path d="M157.228 16.2778C160.63 19.232 160.839 23.1702 160.839 23.1702C160.839 23.1702 161.737 19.232 165.228 16.2778C168.63 13.3237 172.521 12.2494 172.521 12.2494C172.521 12.2494 169.63 11.1243 166.228 8.17017C162.826 5.30552 160.839 1.67017 160.839 1.67017C160.839 1.67017 159.13 5.216 155.728 8.17017C152.237 11.1243 149.156 12.3837 149.156 12.3837C149.156 12.3837 153.826 13.4132 157.228 16.2778Z" stroke="#372900"/>
<path d="M72 97C72 98.3807 70.8807 99.5 69.5 99.5C68.1193 99.5 67 98.3807 67 97C67 95.6193 68.1193 94.5 69.5 94.5C70.8807 94.5 72 95.6193 72 97Z" fill="#372900"/>
<path d="M120.798 99.9418V56.972H102.267V99.9418H83.7362V42.4697C83.7362 34.8605 83.199 29.5788 82.1248 26.6247C81.1401 23.581 78.9916 19.9106 75.6793 15.6137L91.793 4.33411C94.6576 6.21403 97.1194 9.70532 99.1784 14.808C101.237 19.8211 102.267 25.9085 102.267 33.0701V40.8584H120.798V5.94547H139.328V99.9418H120.798Z" fill="#372900"/>
<path d="M151.438 27.5646H169.163V74.0256C169.163 78.5912 169.7 82.1272 170.774 84.6338C171.848 87.1404 173.549 89.3336 175.877 91.2135L161.106 101.553C154.66 96.4505 151.438 89.1993 151.438 79.7997V27.5646Z" fill="#372900"/>
<path d="M237.334 33.0701V40.8584H241.363C242.884 40.8584 244.451 40.0527 246.062 38.4413C247.763 36.7404 249.016 35.1738 249.822 33.7415C250.717 32.2197 251.613 27.9675 252.508 20.9849C253.403 13.9128 253.851 8.89963 253.851 5.94547H272.381C272.381 9.43676 271.889 14.8975 270.904 22.3277C269.919 29.7579 269.024 34.3234 268.219 36.0243C266.876 38.9785 263.474 42.9621 258.013 47.9752C264.369 53.436 268.487 58.0463 270.367 61.8061C271.262 63.6861 272.157 69.3706 273.053 78.8597C274.037 88.2594 274.53 95.2867 274.53 99.9418H255.999C255.999 95.7343 255.551 89.1546 254.656 80.2025C253.851 71.161 253.045 65.9241 252.239 64.4917C249.464 59.4786 246.197 56.972 242.437 56.972H237.334V99.9418H218.803V41.1269C218.803 33.8758 218.266 28.8627 217.192 26.0875C216.207 23.2229 214.059 19.7316 210.747 15.6137L226.86 4.33411C229.725 6.21403 232.187 9.70532 234.246 14.808C236.305 19.8211 237.334 25.9085 237.334 33.0701Z" fill="#372900"/>
<path d="M288.653 99.9418V5.94547C298.888 5.94547 307.184 14.2419 307.184 24.4761V89.9418C307.184 95.4646 302.707 99.9418 297.184 99.9418H288.653Z" fill="#372900"/>
<path d="M120.798 99.9418V56.972H102.267V99.9418H83.7362V42.4697C83.7362 34.8605 83.199 29.5788 82.1248 26.6247C81.1401 23.581 78.9916 19.9106 75.6793 15.6137L91.793 4.33411C94.6576 6.21403 97.1194 9.70532 99.1784 14.808C101.237 19.8211 102.267 25.9085 102.267 33.0701V40.8584H120.798V5.94547H139.328V99.9418H120.798Z" stroke="#372900"/>
<path d="M151.438 27.5646H169.163V74.0256C169.163 78.5912 169.7 82.1272 170.774 84.6338C171.848 87.1404 173.549 89.3336 175.877 91.2135L161.106 101.553C154.66 96.4505 151.438 89.1993 151.438 79.7997V27.5646Z" stroke="#372900"/>
<path d="M237.334 33.0701V40.8584H241.363C242.884 40.8584 244.451 40.0527 246.062 38.4413C247.763 36.7404 249.016 35.1738 249.822 33.7415C250.717 32.2197 251.613 27.9675 252.508 20.9849C253.403 13.9128 253.851 8.89963 253.851 5.94547H272.381C272.381 9.43676 271.889 14.8975 270.904 22.3277C269.919 29.7579 269.024 34.3234 268.219 36.0243C266.876 38.9785 263.474 42.9621 258.013 47.9752C264.369 53.436 268.487 58.0463 270.367 61.8061C271.262 63.6861 272.157 69.3706 273.053 78.8597C274.037 88.2594 274.53 95.2867 274.53 99.9418H255.999C255.999 95.7343 255.551 89.1546 254.656 80.2025C253.851 71.161 253.045 65.9241 252.239 64.4917C249.464 59.4786 246.197 56.972 242.437 56.972H237.334V99.9418H218.803V41.1269C218.803 33.8758 218.266 28.8627 217.192 26.0875C216.207 23.2229 214.059 19.7316 210.747 15.6137L226.86 4.33411C229.725 6.21403 232.187 9.70532 234.246 14.808C236.305 19.8211 237.334 25.9085 237.334 33.0701Z" stroke="#372900"/>
<path d="M288.653 99.9418V5.94547C298.888 5.94547 307.184 14.2419 307.184 24.4761V89.9418C307.184 95.4646 302.707 99.9418 297.184 99.9418H288.653Z" stroke="#372900"/>
<path d="M69.7511 96.9352H28.8986C23.7321 96.9352 -2.38197 115.521 3.99716 107.484C10.3763 99.4468 10.3764 83.48 10.3764 78.4185V21.0167C10.3764 10.7902 18.6691 2.5 28.8986 2.5H83" stroke="#372900" stroke-width="5"/>
<path d="M72 97C72 98.3807 70.8807 99.5 69.5 99.5C68.1193 99.5 67 98.3807 67 97C67 95.6193 68.1193 94.5 69.5 94.5C70.8807 94.5 72 95.6193 72 97Z" fill="#372900"/>
<path d="M69.7511 96.9352H28.8986C23.7321 96.9352 -2.38197 115.521 3.99716 107.484C10.3763 99.4468 10.3764 83.48 10.3764 78.4185V21.0167C10.3764 10.7902 18.6691 2.5 28.8986 2.5H83" stroke="#372900" stroke-width="5"/>
<path d="M72 97C72 98.3807 70.8807 99.5 69.5 99.5C68.1193 99.5 67 98.3807 67 97C67 95.6193 68.1193 94.5 69.5 94.5C70.8807 94.5 72 95.6193 72 97Z" fill="#372900"/>
<path d="M120.798 99.9418V56.972H102.267V99.9418H83.7362V42.4697C83.7362 34.8605 83.199 29.5788 82.1248 26.6247C81.1401 23.581 78.9916 19.9106 75.6793 15.6137L91.793 4.33411C94.6576 6.21403 97.1194 9.70532 99.1784 14.808C101.237 19.8211 102.267 25.9085 102.267 33.0701V40.8584H120.798V5.94547H139.328V99.9418H120.798Z" fill="#372900"/>
<path d="M151.438 27.5646H169.163V74.0256C169.163 78.5912 169.7 82.1272 170.774 84.6338C171.848 87.1404 173.549 89.3336 175.877 91.2135L161.106 101.553C154.66 96.4505 151.438 89.1993 151.438 79.7997V27.5646Z" fill="#372900"/>
<path d="M237.334 33.0701V40.8584H241.363C242.884 40.8584 244.451 40.0527 246.062 38.4413C247.763 36.7404 249.016 35.1738 249.822 33.7415C250.717 32.2197 251.613 27.9675 252.508 20.9849C253.403 13.9128 253.851 8.89963 253.851 5.94547H272.381C272.381 9.43676 271.889 14.8975 270.904 22.3277C269.919 29.7579 269.024 34.3234 268.219 36.0243C266.876 38.9785 263.474 42.9621 258.013 47.9752C264.369 53.436 268.487 58.0463 270.367 61.8061C271.262 63.6861 272.157 69.3706 273.053 78.8597C274.037 88.2594 274.53 95.2867 274.53 99.9418H255.999C255.999 95.7343 255.551 89.1546 254.656 80.2025C253.851 71.161 253.045 65.9241 252.239 64.4917C249.464 59.4786 246.197 56.972 242.437 56.972H237.334V99.9418H218.803V41.1269C218.803 33.8758 218.266 28.8627 217.192 26.0875C216.207 23.2229 214.059 19.7316 210.747 15.6137L226.86 4.33411C229.725 6.21403 232.187 9.70532 234.246 14.808C236.305 19.8211 237.334 25.9085 237.334 33.0701Z" fill="#372900"/>
<path d="M288.653 99.9418V5.94547C298.888 5.94547 307.184 14.2419 307.184 24.4761V89.9418C307.184 95.4646 302.707 99.9418 297.184 99.9418H288.653Z" fill="#372900"/>
<path d="M120.798 99.9418V56.972H102.267V99.9418H83.7362V42.4697C83.7362 34.8605 83.199 29.5788 82.1248 26.6247C81.1401 23.581 78.9916 19.9106 75.6793 15.6137L91.793 4.33411C94.6576 6.21403 97.1194 9.70532 99.1784 14.808C101.237 19.8211 102.267 25.9085 102.267 33.0701V40.8584H120.798V5.94547H139.328V99.9418H120.798Z" stroke="#372900"/>
<path d="M151.438 27.5646H169.163V74.0256C169.163 78.5912 169.7 82.1272 170.774 84.6338C171.848 87.1404 173.549 89.3336 175.877 91.2135L161.106 101.553C154.66 96.4505 151.438 89.1993 151.438 79.7997V27.5646Z" stroke="#372900"/>
<path d="M237.334 33.0701V40.8584H241.363C242.884 40.8584 244.451 40.0527 246.062 38.4413C247.763 36.7404 249.016 35.1738 249.822 33.7415C250.717 32.2197 251.613 27.9675 252.508 20.9849C253.403 13.9128 253.851 8.89963 253.851 5.94547H272.381C272.381 9.43676 271.889 14.8975 270.904 22.3277C269.919 29.7579 269.024 34.3234 268.219 36.0243C266.876 38.9785 263.474 42.9621 258.013 47.9752C264.369 53.436 268.487 58.0463 270.367 61.8061C271.262 63.6861 272.157 69.3706 273.053 78.8597C274.037 88.2594 274.53 95.2867 274.53 99.9418H255.999C255.999 95.7343 255.551 89.1546 254.656 80.2025C253.851 71.161 253.045 65.9241 252.239 64.4917C249.464 59.4786 246.197 56.972 242.437 56.972H237.334V99.9418H218.803V41.1269C218.803 33.8758 218.266 28.8627 217.192 26.0875C216.207 23.2229 214.059 19.7316 210.747 15.6137L226.86 4.33411C229.725 6.21403 232.187 9.70532 234.246 14.808C236.305 19.8211 237.334 25.9085 237.334 33.0701Z" stroke="#372900"/>
<path d="M288.653 99.9418V5.94547C298.888 5.94547 307.184 14.2419 307.184 24.4761V89.9418C307.184 95.4646 302.707 99.9418 297.184 99.9418H288.653Z" stroke="#372900"/>
<path d="M69.7511 96.9352H28.8986C23.7321 96.9352 -2.38197 115.521 3.99716 107.484C10.3763 99.4468 10.3764 83.48 10.3764 78.4185V21.0167C10.3764 10.7902 18.6691 2.5 28.8986 2.5H83" stroke="#372900" stroke-width="5"/>
<path d="M72 97C72 98.3807 70.8807 99.5 69.5 99.5C68.1193 99.5 67 98.3807 67 97C67 95.6193 68.1193 94.5 69.5 94.5C70.8807 94.5 72 95.6193 72 97Z" fill="#372900"/>
<path d="M85.5 2.5C85.5 3.88071 84.3807 5 83 5C81.6193 5 80.5 3.88071 80.5 2.5C80.5 1.11929 81.6193 0 83 0C84.3807 0 85.5 1.11929 85.5 2.5Z" fill="#372900"/>
</svg>
