<svg width="309" height="143" viewBox="0 0 309 143" fill="none" xmlns="http://www.w3.org/2000/svg">
<path d="M29.7666 134.474C29.1623 134.72 28.7147 134.888 28.4238 134.978C28.1105 135.067 27.7748 135.134 27.4167 135.179C27.081 135.246 26.7117 135.291 26.3089 135.313C24.2499 135.403 22.5714 134.754 21.2734 133.366C20.0648 132.068 19.4606 130.435 19.4606 128.465C19.5053 126.72 20.0536 125.231 21.1055 124C22.2021 122.769 23.6345 122.053 25.4025 121.852C26.6781 121.718 27.9538 121.829 29.2295 122.188L28.6588 125.31C27.8531 124.996 27.0586 124.84 26.2753 124.84C25.1115 124.84 24.194 125.164 23.5226 125.813C22.8512 126.462 22.5155 127.391 22.5155 128.599C22.5155 129.114 22.605 129.595 22.784 130.043C22.9854 130.468 23.2428 130.849 23.5561 131.184C23.8918 131.52 24.2723 131.789 24.6975 131.99C25.1451 132.169 25.6263 132.259 26.141 132.259C26.9915 132.281 27.8867 132.068 28.8266 131.621L29.7666 134.474Z" fill="#372900"/>
<path d="M44.5765 134.911H41.1859L41.1524 129.137C41.1076 127.637 40.9957 126.63 40.8167 126.115C40.481 125.22 39.7536 124.75 38.6346 124.705C37.8289 124.683 37.1016 125.03 36.4526 125.746C36.0049 126.283 35.714 126.798 35.5797 127.29C35.5573 128.297 35.5462 129.439 35.5462 130.714C35.5462 131.968 35.5462 133.366 35.5462 134.911H32.1556C32.2003 133.747 32.2339 132.214 32.2563 130.312C32.2787 128.409 32.2899 126.138 32.2899 123.497V121.919C32.3346 117.846 32.2675 115.183 32.0884 113.929H35.6469C35.6021 114.69 35.5574 115.753 35.5126 117.118C35.4902 118.484 35.479 120.173 35.479 122.188V123.497C36.2399 122.266 37.5827 121.65 39.5074 121.65C42.8421 121.65 44.5094 123.877 44.5094 128.331V132.292C44.5094 133.098 44.5206 133.758 44.5429 134.273C44.5653 134.765 44.5765 134.978 44.5765 134.911Z" fill="#372900"/>
<path d="M59.4258 134.441C58.8663 135.067 58.2061 135.381 57.4451 135.381C56.0576 135.381 55.2295 134.832 54.961 133.736C53.6405 134.788 52.1858 135.313 50.5968 135.313C48.2469 135.313 47.072 134.105 47.072 131.688C47.072 129.92 47.8441 128.667 49.3883 127.928C50.3283 127.48 52.1523 127.078 54.8603 126.72V125.847C54.8603 124.929 54.2448 124.47 53.0139 124.47C52.5439 124.47 52.0516 124.526 51.5368 124.638C51.0221 124.75 50.5297 124.918 50.0597 125.142C49.5897 125.343 49.1421 125.601 48.7169 125.914C48.3141 126.205 47.9784 126.529 47.7098 126.887V123.765C48.8064 122.49 50.3842 121.785 52.4432 121.65C54.0098 121.561 55.2743 121.785 56.2366 122.322C57.3556 122.971 57.9151 123.989 57.9151 125.377V132.292C57.9151 132.807 58.1054 133.064 58.4858 133.064C58.732 133.064 59.0453 132.84 59.4258 132.393V134.441ZM54.8603 131.453L54.8267 129.137C54.2 129.226 53.6517 129.316 53.1817 129.405C52.7341 129.495 52.3649 129.584 52.0739 129.674C50.8206 130.032 50.1716 130.569 50.1269 131.285C50.0821 132.27 50.5745 132.762 51.604 132.762C52.1411 132.762 52.7341 132.628 53.3832 132.359C54.0322 132.091 54.5246 131.789 54.8603 131.453Z" fill="#372900"/>
<path d="M68.1459 121.852V124.638H65.8967C65.8519 124.884 65.8184 125.891 65.796 127.659C65.7736 128.823 65.7512 129.595 65.7288 129.976C65.7288 130.334 65.7288 130.323 65.7288 129.942C65.7288 131.173 65.8631 131.789 66.1317 131.789C66.266 131.789 66.4562 131.699 66.7024 131.52C66.9709 131.319 67.1388 131.207 67.2059 131.184C67.2731 131.274 67.4633 132.191 67.7766 133.937C66.1876 134.877 64.7217 135.302 63.3789 135.213C62.8642 135.168 62.6068 134.194 62.6068 132.292C62.6068 132.135 62.6404 131.061 62.7075 129.069C62.7299 128.711 62.7411 128.174 62.7411 127.458C62.7411 126.742 62.7523 125.813 62.7747 124.672H60.8612C60.8835 124.649 60.8947 124.179 60.8947 123.262V121.885H62.8082C62.8306 121.304 62.8418 120.722 62.8418 120.14C62.8418 119.558 62.8418 118.976 62.8418 118.394L65.9303 117.521V121.885C67.385 121.885 68.1235 121.874 68.1459 121.852Z" fill="#372900"/>
<path d="M96.3726 134.441C95.8131 135.067 95.1529 135.381 94.3919 135.381C93.0044 135.381 92.1763 134.832 91.9077 133.736C90.5873 134.788 89.1326 135.313 87.5436 135.313C85.1937 135.313 84.0188 134.105 84.0188 131.688C84.0188 129.92 84.7909 128.667 86.3351 127.928C87.2751 127.48 89.099 127.078 91.807 126.72V125.847C91.807 124.929 91.1916 124.47 89.9607 124.47C89.4907 124.47 88.9983 124.526 88.4836 124.638C87.9689 124.75 87.4765 124.918 87.0065 125.142C86.5365 125.343 86.0889 125.601 85.6637 125.914C85.2609 126.205 84.9252 126.529 84.6566 126.887V123.765C85.7532 122.49 87.331 121.785 89.39 121.65C90.9566 121.561 92.2211 121.785 93.1834 122.322C94.3024 122.971 94.8619 123.989 94.8619 125.377V132.292C94.8619 132.807 95.0521 133.064 95.4326 133.064C95.6788 133.064 95.9921 132.84 96.3726 132.393V134.441ZM91.807 131.453L91.7735 129.137C91.1468 129.226 90.5985 129.316 90.1285 129.405C89.6809 129.495 89.3117 129.584 89.0207 129.674C87.7674 130.032 87.1184 130.569 87.0736 131.285C87.0289 132.27 87.5213 132.762 88.5507 132.762C89.0879 132.762 89.6809 132.628 90.3299 132.359C90.979 132.091 91.4713 131.789 91.807 131.453Z" fill="#372900"/>
<path d="M101.937 113.929C101.892 114.511 101.859 115.574 101.836 117.118C101.814 118.663 101.792 120.688 101.769 123.195C101.769 123.866 101.769 124.784 101.769 125.947C101.792 127.089 101.814 128.499 101.836 130.177C101.859 131.878 101.87 133.12 101.87 133.904C101.892 134.687 101.904 135.023 101.904 134.911H98.4458C98.4905 133.747 98.5241 132.214 98.5465 130.312C98.5689 128.409 98.5801 126.138 98.5801 123.497C98.6024 118.663 98.5353 115.474 98.3786 113.929H101.937Z" fill="#372900"/>
<path d="M117.29 129.372H107.756C107.846 131.319 108.875 132.292 110.844 132.292C111.091 132.292 111.37 132.259 111.684 132.191C112.78 132.012 113.608 131.643 114.168 131.084L116.182 133.702C114.459 134.664 112.881 135.179 111.449 135.246C109.233 135.358 107.487 134.821 106.212 133.635C104.936 132.426 104.298 130.67 104.298 128.364C104.298 126.529 104.947 124.963 106.245 123.665C107.521 122.389 109.076 121.729 110.912 121.684C111.986 121.684 112.926 121.863 113.731 122.221C114.56 122.579 115.242 123.094 115.779 123.765C116.339 124.437 116.742 125.254 116.988 126.216C117.256 127.156 117.357 128.208 117.29 129.372ZM113.832 126.887C113.273 125.455 112.333 124.739 111.012 124.739C109.468 124.784 108.562 125.5 108.293 126.887H113.832Z" fill="#372900"/>
<path d="M140.07 134.911L136.78 134.944C136.802 134.362 136.813 133.68 136.813 132.896C136.836 132.091 136.836 131.151 136.813 130.077C136.791 129.181 136.757 128.443 136.713 127.861C136.69 127.257 136.645 126.798 136.578 126.485C136.287 125.186 135.65 124.537 134.665 124.537C133.747 124.537 132.942 124.784 132.248 125.276C132.069 125.433 131.901 125.589 131.744 125.746C131.588 125.903 131.42 126.059 131.241 126.216C131.263 126.485 131.274 126.82 131.274 127.223C131.274 127.604 131.274 128.051 131.274 128.566L131.308 134.911H128.186C128.186 134.485 128.186 133.993 128.186 133.434C128.186 132.852 128.197 132.191 128.219 131.453C128.242 130.356 128.242 129.383 128.219 128.532C128.175 127.078 128.063 126.115 127.884 125.645C127.526 124.817 126.787 124.403 125.668 124.403C124.773 124.403 124.023 124.705 123.419 125.31C123.307 125.466 123.184 125.623 123.05 125.78C122.915 125.936 122.792 126.104 122.68 126.283V134.911H119.458C119.502 133.747 119.536 132.214 119.558 130.312C119.581 128.409 119.592 126.138 119.592 123.497C119.569 123.363 119.558 123.161 119.558 122.893C119.558 122.624 119.547 122.288 119.525 121.885H122.613L122.58 123.363C123.699 122.176 125.086 121.583 126.742 121.583C128.555 121.583 129.786 122.255 130.435 123.598C130.771 123.195 131.319 122.803 132.08 122.423C133.177 121.863 134.318 121.583 135.504 121.583C137.071 121.583 138.19 122.064 138.861 123.027C139.622 124.079 140.002 125.925 140.002 128.566V132.46C140.025 133.243 140.036 133.87 140.036 134.34C140.058 134.788 140.07 134.978 140.07 134.911Z" fill="#372900"/>
<path d="M154.956 134.441C154.397 135.067 153.737 135.381 152.976 135.381C151.588 135.381 150.76 134.832 150.492 133.736C149.171 134.788 147.716 135.313 146.127 135.313C143.777 135.313 142.603 134.105 142.603 131.688C142.603 129.92 143.375 128.667 144.919 127.928C145.859 127.48 147.683 127.078 150.391 126.72V125.847C150.391 124.929 149.775 124.47 148.544 124.47C148.074 124.47 147.582 124.526 147.067 124.638C146.553 124.75 146.06 124.918 145.59 125.142C145.12 125.343 144.673 125.601 144.247 125.914C143.845 126.205 143.509 126.529 143.24 126.887V123.765C144.337 122.49 145.915 121.785 147.974 121.65C149.54 121.561 150.805 121.785 151.767 122.322C152.886 122.971 153.446 123.989 153.446 125.377V132.292C153.446 132.807 153.636 133.064 154.016 133.064C154.263 133.064 154.576 132.84 154.956 132.393V134.441ZM150.391 131.453L150.357 129.137C149.731 129.226 149.182 129.316 148.712 129.405C148.265 129.495 147.895 129.584 147.604 129.674C146.351 130.032 145.702 130.569 145.657 131.285C145.613 132.27 146.105 132.762 147.135 132.762C147.672 132.762 148.265 132.628 148.914 132.359C149.563 132.091 150.055 131.789 150.391 131.453ZM155.326 116.179C154.923 118.327 153.949 119.401 152.405 119.401C151.219 119.401 150.044 119.133 148.88 118.596C147.739 118.036 146.866 117.756 146.262 117.756C145.635 117.734 145.131 118.226 144.751 119.233L142.535 118.461C142.647 117.23 143.05 116.268 143.744 115.574C144.303 115.015 144.908 114.713 145.557 114.668C146.43 114.623 147.493 114.88 148.746 115.44C150.044 115.977 151.085 116.246 151.868 116.246C152.472 116.246 152.797 115.753 152.841 114.769C153.267 114.992 153.681 115.227 154.084 115.474C154.486 115.697 154.9 115.932 155.326 116.179Z" fill="#372900"/>
<path d="M169.853 128.432C169.853 130.468 169.204 132.102 167.906 133.333C166.586 134.586 164.986 135.213 163.106 135.213C161.047 135.213 159.368 134.541 158.07 133.199C156.817 131.923 156.213 130.312 156.257 128.364C156.28 126.462 156.918 124.884 158.171 123.631C159.447 122.355 161.092 121.718 163.106 121.718C165.142 121.718 166.776 122.333 168.007 123.564C169.238 124.795 169.853 126.417 169.853 128.432ZM166.563 128.264C166.563 127.189 166.239 126.305 165.59 125.612C164.941 124.918 164.102 124.571 163.072 124.571C161.998 124.571 161.114 124.918 160.42 125.612C159.749 126.305 159.413 127.189 159.413 128.264C159.391 129.248 159.738 130.121 160.454 130.882C161.17 131.598 162.043 131.956 163.072 131.956C164.079 131.956 164.907 131.632 165.556 130.983C166.205 130.312 166.541 129.405 166.563 128.264Z" fill="#372900"/>
<path d="M188.545 117.79C188.545 118.237 188.355 118.64 187.974 118.998C187.616 119.356 187.191 119.536 186.699 119.536C186.206 119.558 185.781 119.39 185.423 119.032C185.087 118.674 184.919 118.26 184.919 117.79C184.919 117.298 185.099 116.872 185.457 116.514C185.815 116.134 186.229 115.944 186.699 115.944C187.191 115.944 187.616 116.134 187.974 116.514C188.355 116.872 188.545 117.298 188.545 117.79ZM188.377 135.045H185.154C185.356 130.323 185.356 125.959 185.154 121.953H188.377C188.198 126.361 188.198 130.726 188.377 135.045Z" fill="#372900"/>
<path d="M203.477 134.911H200.087L200.053 129.137C200.008 127.637 199.896 126.63 199.717 126.115C199.382 125.175 198.654 124.705 197.535 124.705C195.946 124.705 194.928 125.567 194.48 127.29C194.458 128.297 194.447 129.439 194.447 130.714C194.447 131.968 194.447 133.366 194.447 134.911H191.056C191.101 133.747 191.135 132.214 191.157 130.312C191.179 128.409 191.191 126.138 191.191 123.497C191.168 123.251 191.146 123.004 191.123 122.758C191.101 122.49 191.079 122.199 191.056 121.885H194.548C194.525 122.176 194.503 122.456 194.48 122.725C194.458 122.993 194.424 123.251 194.38 123.497C195.141 122.266 196.483 121.65 198.408 121.65C201.743 121.65 203.41 123.877 203.41 128.331V132.292C203.41 133.098 203.421 133.758 203.444 134.273C203.466 134.765 203.477 134.978 203.477 134.911Z" fill="#372900"/>
<path d="M212.72 121.852V124.638H210.471C210.426 124.884 210.393 125.891 210.37 127.659C210.348 128.823 210.326 129.595 210.303 129.976C210.303 130.334 210.303 130.323 210.303 129.942C210.303 131.173 210.438 131.789 210.706 131.789C210.84 131.789 211.031 131.699 211.277 131.52C211.545 131.319 211.713 131.207 211.78 131.184C211.847 131.274 212.038 132.191 212.351 133.937C210.762 134.877 209.296 135.302 207.953 135.213C207.439 135.168 207.181 134.194 207.181 132.292C207.181 132.135 207.215 131.061 207.282 129.069C207.304 128.711 207.315 128.174 207.315 127.458C207.315 126.742 207.327 125.813 207.349 124.672H205.436C205.458 124.649 205.469 124.179 205.469 123.262V121.885H207.383C207.405 121.304 207.416 120.722 207.416 120.14C207.416 119.558 207.416 118.976 207.416 118.394L210.505 117.521V121.885C211.959 121.885 212.698 121.874 212.72 121.852Z" fill="#372900"/>
<path d="M227.639 129.372H218.105C218.194 131.319 219.224 132.292 221.193 132.292C221.439 132.292 221.719 132.259 222.032 132.191C223.129 132.012 223.957 131.643 224.516 131.084L226.531 133.702C224.807 134.664 223.23 135.179 221.797 135.246C219.582 135.358 217.836 134.821 216.56 133.635C215.285 132.426 214.647 130.67 214.647 128.364C214.647 126.529 215.296 124.963 216.594 123.665C217.87 122.389 219.425 121.729 221.26 121.684C222.334 121.684 223.274 121.863 224.08 122.221C224.908 122.579 225.591 123.094 226.128 123.765C226.687 124.437 227.09 125.254 227.336 126.216C227.605 127.156 227.706 128.208 227.639 129.372ZM224.181 126.887C223.621 125.455 222.681 124.739 221.361 124.739C219.817 124.784 218.91 125.5 218.642 126.887H224.181Z" fill="#372900"/>
<path d="M233.398 113.929C233.353 114.511 233.32 115.574 233.297 117.118C233.275 118.663 233.253 120.688 233.23 123.195C233.23 123.866 233.23 124.784 233.23 125.947C233.253 127.089 233.275 128.499 233.297 130.177C233.32 131.878 233.331 133.12 233.331 133.904C233.353 134.687 233.365 135.023 233.365 134.911H229.907C229.952 133.747 229.985 132.214 230.008 130.312C230.03 128.409 230.041 126.138 230.041 123.497C230.064 118.663 229.996 115.474 229.84 113.929H233.398Z" fill="#372900"/>
<path d="M239.687 117.79C239.687 118.237 239.497 118.64 239.116 118.998C238.758 119.356 238.333 119.536 237.841 119.536C237.348 119.558 236.923 119.39 236.565 119.032C236.229 118.674 236.061 118.26 236.061 117.79C236.061 117.298 236.24 116.872 236.599 116.514C236.957 116.134 237.371 115.944 237.841 115.944C238.333 115.944 238.758 116.134 239.116 116.514C239.497 116.872 239.687 117.298 239.687 117.79ZM239.519 135.045H236.296C236.498 130.323 236.498 125.959 236.296 121.953H239.519C239.34 126.361 239.34 130.726 239.519 135.045Z" fill="#372900"/>
<path d="M254.518 121.852C254.429 122.367 254.362 123.004 254.317 123.765C254.295 124.504 254.283 125.377 254.283 126.384C254.306 127.145 254.317 127.906 254.317 128.667C254.317 129.427 254.328 130.188 254.351 130.949V134.206C254.373 134.899 254.384 135.448 254.384 135.851C254.384 136.276 254.384 136.567 254.384 136.723C254.384 138.536 253.825 139.946 252.706 140.953C251.654 141.893 250.277 142.363 248.577 142.363C248.465 142.363 248.342 142.363 248.207 142.363C248.073 142.363 247.939 142.352 247.804 142.33C247.021 142.262 246.148 142.027 245.186 141.625C244.179 141.244 243.407 141.02 242.87 140.953L244.481 137.764C245.891 138.838 247.256 139.375 248.577 139.375C249.539 139.375 250.244 139.152 250.691 138.704C251.139 138.279 251.363 137.518 251.363 136.421V134.105C250.691 134.709 249.696 135.023 248.375 135.045C246.271 135.09 244.638 134.519 243.474 133.333C242.31 132.147 241.739 130.468 241.762 128.297C241.762 127.268 241.93 126.339 242.265 125.511C242.601 124.661 243.071 123.944 243.675 123.363C244.28 122.758 244.996 122.311 245.824 122.02C246.674 121.729 247.603 121.594 248.61 121.617C250.087 121.662 251.173 122.064 251.866 122.825L252.269 121.852H254.518ZM251.329 125.847C250.591 125.019 249.673 124.605 248.577 124.605C247.525 124.605 246.663 124.907 245.992 125.511C245.253 126.182 244.895 127.122 244.917 128.331C244.94 129.427 245.275 130.323 245.924 131.016C246.596 131.71 247.469 132.057 248.543 132.057C249.662 132.057 250.58 131.654 251.296 130.849C251.296 130.132 251.296 129.36 251.296 128.532C251.296 127.682 251.307 126.787 251.329 125.847Z" fill="#372900"/>
<path d="M269.732 129.372H260.198C260.288 131.319 261.317 132.292 263.287 132.292C263.533 132.292 263.813 132.259 264.126 132.191C265.223 132.012 266.051 131.643 266.61 131.084L268.624 133.702C266.901 134.664 265.323 135.179 263.891 135.246C261.675 135.358 259.93 134.821 258.654 133.635C257.378 132.426 256.741 130.67 256.741 128.364C256.741 126.529 257.39 124.963 258.688 123.665C259.963 122.389 261.519 121.729 263.354 121.684C264.428 121.684 265.368 121.863 266.174 122.221C267.002 122.579 267.684 123.094 268.222 123.765C268.781 124.437 269.184 125.254 269.43 126.216C269.699 127.156 269.799 128.208 269.732 129.372ZM266.275 126.887C265.715 125.455 264.775 124.739 263.455 124.739C261.91 124.784 261.004 125.5 260.735 126.887H266.275Z" fill="#372900"/>
<path d="M284.321 134.911H280.93L280.897 129.137C280.852 127.637 280.74 126.63 280.561 126.115C280.225 125.175 279.498 124.705 278.379 124.705C276.79 124.705 275.772 125.567 275.324 127.29C275.302 128.297 275.29 129.439 275.29 130.714C275.29 131.968 275.29 133.366 275.29 134.911H271.9C271.945 133.747 271.978 132.214 272.001 130.312C272.023 128.409 272.034 126.138 272.034 123.497C272.012 123.251 271.989 123.004 271.967 122.758C271.945 122.49 271.922 122.199 271.9 121.885H275.391C275.369 122.176 275.346 122.456 275.324 122.725C275.302 122.993 275.268 123.251 275.223 123.497C275.984 122.266 277.327 121.65 279.252 121.65C282.586 121.65 284.254 123.877 284.254 128.331V132.292C284.254 133.098 284.265 133.758 284.287 134.273C284.31 134.765 284.321 134.978 284.321 134.911Z" fill="#372900"/>
<path d="M293.564 121.852V124.638H291.315C291.27 124.884 291.236 125.891 291.214 127.659C291.192 128.823 291.169 129.595 291.147 129.976C291.147 130.334 291.147 130.323 291.147 129.942C291.147 131.173 291.281 131.789 291.55 131.789C291.684 131.789 291.874 131.699 292.12 131.52C292.389 131.319 292.557 131.207 292.624 131.184C292.691 131.274 292.881 132.191 293.195 133.937C291.606 134.877 290.14 135.302 288.797 135.213C288.282 135.168 288.025 134.194 288.025 132.292C288.025 132.135 288.058 131.061 288.126 129.069C288.148 128.711 288.159 128.174 288.159 127.458C288.159 126.742 288.17 125.813 288.193 124.672H286.279C286.302 124.649 286.313 124.179 286.313 123.262V121.885H288.226C288.249 121.304 288.26 120.722 288.26 120.14C288.26 119.558 288.26 118.976 288.26 118.394L291.348 117.521V121.885C292.803 121.885 293.542 121.874 293.564 121.852Z" fill="#372900"/>
<path d="M308.482 129.372H298.948C299.038 131.319 300.067 132.292 302.037 132.292C302.283 132.292 302.563 132.259 302.876 132.191C303.973 132.012 304.801 131.643 305.36 131.084L307.374 133.702C305.651 134.664 304.073 135.179 302.641 135.246C300.425 135.358 298.68 134.821 297.404 133.635C296.128 132.426 295.491 130.67 295.491 128.364C295.491 126.529 296.14 124.963 297.438 123.665C298.713 122.389 300.269 121.729 302.104 121.684C303.178 121.684 304.118 121.863 304.924 122.221C305.752 122.579 306.434 123.094 306.971 123.765C307.531 124.437 307.934 125.254 308.18 126.216C308.449 127.156 308.549 128.208 308.482 129.372ZM305.024 126.887C304.465 125.455 303.525 124.739 302.204 124.739C300.66 124.784 299.754 125.5 299.485 126.887H305.024Z" fill="#372900"/>
<path d="M120.798 99.9418V56.972H102.267V99.9418H83.7361V42.4697C83.7361 34.8605 83.199 29.5788 82.1248 26.6247C81.14 23.581 78.9916 19.9106 75.6793 15.6137L91.793 4.33411C94.6576 6.21403 97.1194 9.70532 99.1784 14.808C101.237 19.8211 102.267 25.9085 102.267 33.0701V40.8584H120.798V5.94547H139.328V99.9418H120.798Z" fill="#372900"/>
<path d="M151.438 27.5646H169.163V74.0256C169.163 78.5912 169.7 82.1272 170.774 84.6338C171.848 87.1404 173.549 89.3336 175.877 91.2135L161.106 101.553C154.66 96.4505 151.438 89.1993 151.438 79.7997V27.5646Z" fill="#372900"/>
<path d="M237.334 33.0701V40.8584H241.362C242.884 40.8584 244.451 40.0527 246.062 38.4413C247.763 36.7404 249.016 35.1738 249.822 33.7415C250.717 32.2197 251.613 27.9675 252.508 20.9849C253.403 13.9128 253.851 8.89963 253.851 5.94547H272.381C272.381 9.43676 271.889 14.8975 270.904 22.3277C269.919 29.7579 269.024 34.3234 268.219 36.0243C266.876 38.9785 263.474 42.9621 258.013 47.9752C264.369 53.436 268.487 58.0463 270.367 61.8061C271.262 63.6861 272.157 69.3706 273.053 78.8597C274.037 88.2594 274.53 95.2867 274.53 99.9418H255.999C255.999 95.7343 255.551 89.1546 254.656 80.2025C253.851 71.161 253.045 65.9241 252.239 64.4917C249.464 59.4786 246.197 56.972 242.437 56.972H237.334V99.9418H218.803V41.1269C218.803 33.8758 218.266 28.8627 217.192 26.0875C216.207 23.2229 214.059 19.7316 210.747 15.6137L226.86 4.33411C229.725 6.21403 232.187 9.70532 234.246 14.808C236.305 19.8211 237.334 25.9085 237.334 33.0701Z" fill="#372900"/>
<path d="M288.653 99.9418V5.94547C298.888 5.94547 307.184 14.2419 307.184 24.4761V89.9418C307.184 95.4646 302.707 99.9418 297.184 99.9418H288.653Z" fill="#372900"/>
<path d="M29.7666 134.474C29.1623 134.72 28.7147 134.888 28.4238 134.978C28.1105 135.067 27.7748 135.134 27.4167 135.179C27.081 135.246 26.7117 135.291 26.3089 135.313C24.2499 135.403 22.5714 134.754 21.2734 133.366C20.0648 132.068 19.4606 130.435 19.4606 128.465C19.5053 126.72 20.0536 125.231 21.1055 124C22.2021 122.769 23.6345 122.053 25.4025 121.852C26.6781 121.718 27.9538 121.829 29.2295 122.188L28.6588 125.31C27.8531 124.996 27.0586 124.84 26.2753 124.84C25.1115 124.84 24.194 125.164 23.5226 125.813C22.8512 126.462 22.5155 127.391 22.5155 128.599C22.5155 129.114 22.605 129.595 22.784 130.043C22.9854 130.468 23.2428 130.849 23.5561 131.184C23.8918 131.52 24.2723 131.789 24.6975 131.99C25.1451 132.169 25.6263 132.259 26.141 132.259C26.9915 132.281 27.8867 132.068 28.8266 131.621L29.7666 134.474Z" stroke="#372900"/>
<path d="M44.5765 134.911H41.1859L41.1524 129.137C41.1076 127.637 40.9957 126.63 40.8167 126.115C40.481 125.22 39.7536 124.75 38.6346 124.705C37.8289 124.683 37.1016 125.03 36.4526 125.746C36.0049 126.283 35.714 126.798 35.5797 127.29C35.5573 128.297 35.5462 129.439 35.5462 130.714C35.5462 131.968 35.5462 133.366 35.5462 134.911H32.1556C32.2003 133.747 32.2339 132.214 32.2563 130.312C32.2787 128.409 32.2899 126.138 32.2899 123.497V121.919C32.3346 117.846 32.2675 115.183 32.0884 113.929H35.6469C35.6021 114.69 35.5574 115.753 35.5126 117.118C35.4902 118.484 35.479 120.173 35.479 122.188V123.497C36.2399 122.266 37.5827 121.65 39.5074 121.65C42.8421 121.65 44.5094 123.877 44.5094 128.331V132.292C44.5094 133.098 44.5206 133.758 44.5429 134.273C44.5653 134.765 44.5765 134.978 44.5765 134.911Z" stroke="#372900"/>
<path d="M59.4258 134.441C58.8663 135.067 58.2061 135.381 57.4451 135.381C56.0576 135.381 55.2295 134.832 54.961 133.736C53.6405 134.788 52.1858 135.313 50.5968 135.313C48.2469 135.313 47.072 134.105 47.072 131.688C47.072 129.92 47.8441 128.667 49.3883 127.928C50.3283 127.48 52.1523 127.078 54.8603 126.72V125.847C54.8603 124.929 54.2448 124.47 53.0139 124.47C52.5439 124.47 52.0516 124.526 51.5368 124.638C51.0221 124.75 50.5297 124.918 50.0597 125.142C49.5897 125.343 49.1421 125.601 48.7169 125.914C48.3141 126.205 47.9784 126.529 47.7098 126.887V123.765C48.8064 122.49 50.3842 121.785 52.4432 121.65C54.0098 121.561 55.2743 121.785 56.2366 122.322C57.3556 122.971 57.9151 123.989 57.9151 125.377V132.292C57.9151 132.807 58.1054 133.064 58.4858 133.064C58.732 133.064 59.0453 132.84 59.4258 132.393V134.441ZM54.8603 131.453L54.8267 129.137C54.2 129.226 53.6517 129.316 53.1817 129.405C52.7341 129.495 52.3649 129.584 52.0739 129.674C50.8206 130.032 50.1716 130.569 50.1269 131.285C50.0821 132.27 50.5745 132.762 51.604 132.762C52.1411 132.762 52.7341 132.628 53.3832 132.359C54.0322 132.091 54.5246 131.789 54.8603 131.453Z" stroke="#372900"/>
<path d="M68.1459 121.852V124.638H65.8967C65.8519 124.884 65.8184 125.891 65.796 127.659C65.7736 128.823 65.7512 129.595 65.7288 129.976C65.7288 130.334 65.7288 130.323 65.7288 129.942C65.7288 131.173 65.8631 131.789 66.1317 131.789C66.266 131.789 66.4562 131.699 66.7024 131.52C66.9709 131.319 67.1388 131.207 67.2059 131.184C67.2731 131.274 67.4633 132.191 67.7766 133.937C66.1876 134.877 64.7217 135.302 63.3789 135.213C62.8642 135.168 62.6068 134.194 62.6068 132.292C62.6068 132.135 62.6404 131.061 62.7075 129.069C62.7299 128.711 62.7411 128.174 62.7411 127.458C62.7411 126.742 62.7523 125.813 62.7747 124.672H60.8612C60.8835 124.649 60.8947 124.179 60.8947 123.262V121.885H62.8082C62.8306 121.304 62.8418 120.722 62.8418 120.14C62.8418 119.558 62.8418 118.976 62.8418 118.394L65.9303 117.521V121.885C67.385 121.885 68.1235 121.874 68.1459 121.852Z" stroke="#372900"/>
<path d="M96.3726 134.441C95.8131 135.067 95.1529 135.381 94.3919 135.381C93.0044 135.381 92.1763 134.832 91.9077 133.736C90.5873 134.788 89.1326 135.313 87.5436 135.313C85.1937 135.313 84.0188 134.105 84.0188 131.688C84.0188 129.92 84.7909 128.667 86.3351 127.928C87.2751 127.48 89.099 127.078 91.807 126.72V125.847C91.807 124.929 91.1916 124.47 89.9607 124.47C89.4907 124.47 88.9983 124.526 88.4836 124.638C87.9689 124.75 87.4765 124.918 87.0065 125.142C86.5365 125.343 86.0889 125.601 85.6637 125.914C85.2609 126.205 84.9252 126.529 84.6566 126.887V123.765C85.7532 122.49 87.331 121.785 89.39 121.65C90.9566 121.561 92.2211 121.785 93.1834 122.322C94.3024 122.971 94.8619 123.989 94.8619 125.377V132.292C94.8619 132.807 95.0521 133.064 95.4326 133.064C95.6788 133.064 95.9921 132.84 96.3726 132.393V134.441ZM91.807 131.453L91.7735 129.137C91.1468 129.226 90.5985 129.316 90.1285 129.405C89.6809 129.495 89.3117 129.584 89.0207 129.674C87.7674 130.032 87.1184 130.569 87.0736 131.285C87.0289 132.27 87.5213 132.762 88.5507 132.762C89.0879 132.762 89.6809 132.628 90.3299 132.359C90.979 132.091 91.4713 131.789 91.807 131.453Z" stroke="#372900"/>
<path d="M101.937 113.929C101.892 114.511 101.859 115.574 101.836 117.118C101.814 118.663 101.792 120.688 101.769 123.195C101.769 123.866 101.769 124.784 101.769 125.947C101.792 127.089 101.814 128.499 101.836 130.177C101.859 131.878 101.87 133.12 101.87 133.904C101.892 134.687 101.904 135.023 101.904 134.911H98.4458C98.4905 133.747 98.5241 132.214 98.5465 130.312C98.5689 128.409 98.5801 126.138 98.5801 123.497C98.6024 118.663 98.5353 115.474 98.3786 113.929H101.937Z" stroke="#372900"/>
<path d="M117.29 129.372H107.756C107.846 131.319 108.875 132.292 110.844 132.292C111.091 132.292 111.37 132.259 111.684 132.191C112.78 132.012 113.608 131.643 114.168 131.084L116.182 133.702C114.459 134.664 112.881 135.179 111.449 135.246C109.233 135.358 107.487 134.821 106.212 133.635C104.936 132.426 104.298 130.67 104.298 128.364C104.298 126.529 104.947 124.963 106.245 123.665C107.521 122.389 109.076 121.729 110.912 121.684C111.986 121.684 112.926 121.863 113.731 122.221C114.56 122.579 115.242 123.094 115.779 123.765C116.339 124.437 116.742 125.254 116.988 126.216C117.256 127.156 117.357 128.208 117.29 129.372ZM113.832 126.887C113.273 125.455 112.333 124.739 111.012 124.739C109.468 124.784 108.562 125.5 108.293 126.887H113.832Z" stroke="#372900"/>
<path d="M140.07 134.911L136.78 134.944C136.802 134.362 136.813 133.68 136.813 132.896C136.836 132.091 136.836 131.151 136.813 130.077C136.791 129.181 136.757 128.443 136.713 127.861C136.69 127.257 136.645 126.798 136.578 126.485C136.287 125.186 135.65 124.537 134.665 124.537C133.747 124.537 132.942 124.784 132.248 125.276C132.069 125.433 131.901 125.589 131.744 125.746C131.588 125.903 131.42 126.059 131.241 126.216C131.263 126.485 131.274 126.82 131.274 127.223C131.274 127.604 131.274 128.051 131.274 128.566L131.308 134.911H128.186C128.186 134.485 128.186 133.993 128.186 133.434C128.186 132.852 128.197 132.191 128.219 131.453C128.242 130.356 128.242 129.383 128.219 128.532C128.175 127.078 128.063 126.115 127.884 125.645C127.526 124.817 126.787 124.403 125.668 124.403C124.773 124.403 124.023 124.705 123.419 125.31C123.307 125.466 123.184 125.623 123.05 125.78C122.915 125.936 122.792 126.104 122.68 126.283V134.911H119.458C119.502 133.747 119.536 132.214 119.558 130.312C119.581 128.409 119.592 126.138 119.592 123.497C119.569 123.363 119.558 123.161 119.558 122.893C119.558 122.624 119.547 122.288 119.525 121.885H122.613L122.58 123.363C123.699 122.176 125.086 121.583 126.742 121.583C128.555 121.583 129.786 122.255 130.435 123.598C130.771 123.195 131.319 122.803 132.08 122.423C133.177 121.863 134.318 121.583 135.504 121.583C137.071 121.583 138.19 122.064 138.861 123.027C139.622 124.079 140.002 125.925 140.002 128.566V132.46C140.025 133.243 140.036 133.87 140.036 134.34C140.058 134.788 140.07 134.978 140.07 134.911Z" stroke="#372900"/>
<path d="M154.956 134.441C154.397 135.067 153.737 135.381 152.976 135.381C151.588 135.381 150.76 134.832 150.492 133.736C149.171 134.788 147.716 135.313 146.127 135.313C143.777 135.313 142.603 134.105 142.603 131.688C142.603 129.92 143.375 128.667 144.919 127.928C145.859 127.48 147.683 127.078 150.391 126.72V125.847C150.391 124.929 149.775 124.47 148.544 124.47C148.074 124.47 147.582 124.526 147.067 124.638C146.553 124.75 146.06 124.918 145.59 125.142C145.12 125.343 144.673 125.601 144.247 125.914C143.845 126.205 143.509 126.529 143.24 126.887V123.765C144.337 122.49 145.915 121.785 147.974 121.65C149.54 121.561 150.805 121.785 151.767 122.322C152.886 122.971 153.446 123.989 153.446 125.377V132.292C153.446 132.807 153.636 133.064 154.016 133.064C154.263 133.064 154.576 132.84 154.956 132.393V134.441ZM150.391 131.453L150.357 129.137C149.731 129.226 149.182 129.316 148.712 129.405C148.265 129.495 147.895 129.584 147.604 129.674C146.351 130.032 145.702 130.569 145.657 131.285C145.613 132.27 146.105 132.762 147.135 132.762C147.672 132.762 148.265 132.628 148.914 132.359C149.563 132.091 150.055 131.789 150.391 131.453ZM155.326 116.179C154.923 118.327 153.949 119.401 152.405 119.401C151.219 119.401 150.044 119.133 148.88 118.596C147.739 118.036 146.866 117.756 146.262 117.756C145.635 117.734 145.131 118.226 144.751 119.233L142.535 118.461C142.647 117.23 143.05 116.268 143.744 115.574C144.303 115.015 144.908 114.713 145.557 114.668C146.43 114.623 147.493 114.88 148.746 115.44C150.044 115.977 151.085 116.246 151.868 116.246C152.472 116.246 152.797 115.753 152.841 114.769C153.267 114.992 153.681 115.227 154.084 115.474C154.486 115.697 154.9 115.932 155.326 116.179Z" stroke="#372900"/>
<path d="M169.853 128.432C169.853 130.468 169.204 132.102 167.906 133.333C166.586 134.586 164.986 135.213 163.106 135.213C161.047 135.213 159.368 134.541 158.07 133.199C156.817 131.923 156.213 130.312 156.257 128.364C156.28 126.462 156.918 124.884 158.171 123.631C159.447 122.355 161.092 121.718 163.106 121.718C165.142 121.718 166.776 122.333 168.007 123.564C169.238 124.795 169.853 126.417 169.853 128.432ZM166.563 128.264C166.563 127.189 166.239 126.305 165.59 125.612C164.941 124.918 164.102 124.571 163.072 124.571C161.998 124.571 161.114 124.918 160.42 125.612C159.749 126.305 159.413 127.189 159.413 128.264C159.391 129.248 159.738 130.121 160.454 130.882C161.17 131.598 162.043 131.956 163.072 131.956C164.079 131.956 164.907 131.632 165.556 130.983C166.205 130.312 166.541 129.405 166.563 128.264Z" stroke="#372900"/>
<path d="M188.545 117.79C188.545 118.237 188.355 118.64 187.974 118.998C187.616 119.356 187.191 119.536 186.699 119.536C186.206 119.558 185.781 119.39 185.423 119.032C185.087 118.674 184.919 118.26 184.919 117.79C184.919 117.298 185.099 116.872 185.457 116.514C185.815 116.134 186.229 115.944 186.699 115.944C187.191 115.944 187.616 116.134 187.974 116.514C188.355 116.872 188.545 117.298 188.545 117.79ZM188.377 135.045H185.154C185.356 130.323 185.356 125.959 185.154 121.953H188.377C188.198 126.361 188.198 130.726 188.377 135.045Z" stroke="#372900"/>
<path d="M203.477 134.911H200.087L200.053 129.137C200.008 127.637 199.896 126.63 199.717 126.115C199.382 125.175 198.654 124.705 197.535 124.705C195.946 124.705 194.928 125.567 194.48 127.29C194.458 128.297 194.447 129.439 194.447 130.714C194.447 131.968 194.447 133.366 194.447 134.911H191.056C191.101 133.747 191.135 132.214 191.157 130.312C191.179 128.409 191.191 126.138 191.191 123.497C191.168 123.251 191.146 123.004 191.123 122.758C191.101 122.49 191.079 122.199 191.056 121.885H194.548C194.525 122.176 194.503 122.456 194.48 122.725C194.458 122.993 194.424 123.251 194.38 123.497C195.141 122.266 196.483 121.65 198.408 121.65C201.743 121.65 203.41 123.877 203.41 128.331V132.292C203.41 133.098 203.421 133.758 203.444 134.273C203.466 134.765 203.477 134.978 203.477 134.911Z" stroke="#372900"/>
<path d="M212.72 121.852V124.638H210.471C210.426 124.884 210.393 125.891 210.37 127.659C210.348 128.823 210.326 129.595 210.303 129.976C210.303 130.334 210.303 130.323 210.303 129.942C210.303 131.173 210.438 131.789 210.706 131.789C210.84 131.789 211.031 131.699 211.277 131.52C211.545 131.319 211.713 131.207 211.78 131.184C211.847 131.274 212.038 132.191 212.351 133.937C210.762 134.877 209.296 135.302 207.953 135.213C207.439 135.168 207.181 134.194 207.181 132.292C207.181 132.135 207.215 131.061 207.282 129.069C207.304 128.711 207.315 128.174 207.315 127.458C207.315 126.742 207.327 125.813 207.349 124.672H205.436C205.458 124.649 205.469 124.179 205.469 123.262V121.885H207.383C207.405 121.304 207.416 120.722 207.416 120.14C207.416 119.558 207.416 118.976 207.416 118.394L210.505 117.521V121.885C211.959 121.885 212.698 121.874 212.72 121.852Z" stroke="#372900"/>
<path d="M227.639 129.372H218.105C218.194 131.319 219.224 132.292 221.193 132.292C221.439 132.292 221.719 132.259 222.032 132.191C223.129 132.012 223.957 131.643 224.516 131.084L226.531 133.702C224.807 134.664 223.23 135.179 221.797 135.246C219.582 135.358 217.836 134.821 216.56 133.635C215.285 132.426 214.647 130.67 214.647 128.364C214.647 126.529 215.296 124.963 216.594 123.665C217.87 122.389 219.425 121.729 221.26 121.684C222.334 121.684 223.274 121.863 224.08 122.221C224.908 122.579 225.591 123.094 226.128 123.765C226.687 124.437 227.09 125.254 227.336 126.216C227.605 127.156 227.706 128.208 227.639 129.372ZM224.181 126.887C223.621 125.455 222.681 124.739 221.361 124.739C219.817 124.784 218.91 125.5 218.642 126.887H224.181Z" stroke="#372900"/>
<path d="M233.398 113.929C233.353 114.511 233.32 115.574 233.297 117.118C233.275 118.663 233.253 120.688 233.23 123.195C233.23 123.866 233.23 124.784 233.23 125.947C233.253 127.089 233.275 128.499 233.297 130.177C233.32 131.878 233.331 133.12 233.331 133.904C233.353 134.687 233.365 135.023 233.365 134.911H229.907C229.952 133.747 229.985 132.214 230.008 130.312C230.03 128.409 230.041 126.138 230.041 123.497C230.064 118.663 229.996 115.474 229.84 113.929H233.398Z" stroke="#372900"/>
<path d="M239.687 117.79C239.687 118.237 239.497 118.64 239.116 118.998C238.758 119.356 238.333 119.536 237.841 119.536C237.348 119.558 236.923 119.39 236.565 119.032C236.229 118.674 236.061 118.26 236.061 117.79C236.061 117.298 236.24 116.872 236.599 116.514C236.957 116.134 237.371 115.944 237.841 115.944C238.333 115.944 238.758 116.134 239.116 116.514C239.497 116.872 239.687 117.298 239.687 117.79ZM239.519 135.045H236.296C236.498 130.323 236.498 125.959 236.296 121.953H239.519C239.34 126.361 239.34 130.726 239.519 135.045Z" stroke="#372900"/>
<path d="M254.518 121.852C254.429 122.367 254.362 123.004 254.317 123.765C254.295 124.504 254.283 125.377 254.283 126.384C254.306 127.145 254.317 127.906 254.317 128.667C254.317 129.427 254.328 130.188 254.351 130.949V134.206C254.373 134.899 254.384 135.448 254.384 135.851C254.384 136.276 254.384 136.567 254.384 136.723C254.384 138.536 253.825 139.946 252.706 140.953C251.654 141.893 250.277 142.363 248.577 142.363C248.465 142.363 248.342 142.363 248.207 142.363C248.073 142.363 247.939 142.352 247.804 142.33C247.021 142.262 246.148 142.027 245.186 141.625C244.179 141.244 243.407 141.02 242.87 140.953L244.481 137.764C245.891 138.838 247.256 139.375 248.577 139.375C249.539 139.375 250.244 139.152 250.691 138.704C251.139 138.279 251.363 137.518 251.363 136.421V134.105C250.691 134.709 249.696 135.023 248.375 135.045C246.271 135.09 244.638 134.519 243.474 133.333C242.31 132.147 241.739 130.468 241.762 128.297C241.762 127.268 241.93 126.339 242.265 125.511C242.601 124.661 243.071 123.944 243.675 123.363C244.28 122.758 244.996 122.311 245.824 122.02C246.674 121.729 247.603 121.594 248.61 121.617C250.087 121.662 251.173 122.064 251.866 122.825L252.269 121.852H254.518ZM251.329 125.847C250.591 125.019 249.673 124.605 248.577 124.605C247.525 124.605 246.663 124.907 245.992 125.511C245.253 126.182 244.895 127.122 244.917 128.331C244.94 129.427 245.275 130.323 245.924 131.016C246.596 131.71 247.469 132.057 248.543 132.057C249.662 132.057 250.58 131.654 251.296 130.849C251.296 130.132 251.296 129.36 251.296 128.532C251.296 127.682 251.307 126.787 251.329 125.847Z" stroke="#372900"/>
<path d="M269.732 129.372H260.198C260.288 131.319 261.317 132.292 263.287 132.292C263.533 132.292 263.813 132.259 264.126 132.191C265.223 132.012 266.051 131.643 266.61 131.084L268.624 133.702C266.901 134.664 265.323 135.179 263.891 135.246C261.675 135.358 259.93 134.821 258.654 133.635C257.378 132.426 256.741 130.67 256.741 128.364C256.741 126.529 257.39 124.963 258.688 123.665C259.963 122.389 261.519 121.729 263.354 121.684C264.428 121.684 265.368 121.863 266.174 122.221C267.002 122.579 267.684 123.094 268.222 123.765C268.781 124.437 269.184 125.254 269.43 126.216C269.699 127.156 269.799 128.208 269.732 129.372ZM266.275 126.887C265.715 125.455 264.775 124.739 263.455 124.739C261.91 124.784 261.004 125.5 260.735 126.887H266.275Z" stroke="#372900"/>
<path d="M284.321 134.911H280.93L280.897 129.137C280.852 127.637 280.74 126.63 280.561 126.115C280.225 125.175 279.498 124.705 278.379 124.705C276.79 124.705 275.772 125.567 275.324 127.29C275.302 128.297 275.29 129.439 275.29 130.714C275.29 131.968 275.29 133.366 275.29 134.911H271.9C271.945 133.747 271.978 132.214 272.001 130.312C272.023 128.409 272.034 126.138 272.034 123.497C272.012 123.251 271.989 123.004 271.967 122.758C271.945 122.49 271.922 122.199 271.9 121.885H275.391C275.369 122.176 275.346 122.456 275.324 122.725C275.302 122.993 275.268 123.251 275.223 123.497C275.984 122.266 277.327 121.65 279.252 121.65C282.586 121.65 284.254 123.877 284.254 128.331V132.292C284.254 133.098 284.265 133.758 284.287 134.273C284.31 134.765 284.321 134.978 284.321 134.911Z" stroke="#372900"/>
<path d="M293.564 121.852V124.638H291.315C291.27 124.884 291.236 125.891 291.214 127.659C291.192 128.823 291.169 129.595 291.147 129.976C291.147 130.334 291.147 130.323 291.147 129.942C291.147 131.173 291.281 131.789 291.55 131.789C291.684 131.789 291.874 131.699 292.12 131.52C292.389 131.319 292.557 131.207 292.624 131.184C292.691 131.274 292.881 132.191 293.195 133.937C291.606 134.877 290.14 135.302 288.797 135.213C288.282 135.168 288.025 134.194 288.025 132.292C288.025 132.135 288.058 131.061 288.126 129.069C288.148 128.711 288.159 128.174 288.159 127.458C288.159 126.742 288.17 125.813 288.193 124.672H286.279C286.302 124.649 286.313 124.179 286.313 123.262V121.885H288.226C288.249 121.304 288.26 120.722 288.26 120.14C288.26 119.558 288.26 118.976 288.26 118.394L291.348 117.521V121.885C292.803 121.885 293.542 121.874 293.564 121.852Z" stroke="#372900"/>
<path d="M308.482 129.372H298.948C299.038 131.319 300.067 132.292 302.037 132.292C302.283 132.292 302.563 132.259 302.876 132.191C303.973 132.012 304.801 131.643 305.36 131.084L307.374 133.702C305.651 134.664 304.073 135.179 302.641 135.246C300.425 135.358 298.68 134.821 297.404 133.635C296.128 132.426 295.491 130.67 295.491 128.364C295.491 126.529 296.14 124.963 297.438 123.665C298.713 122.389 300.269 121.729 302.104 121.684C303.178 121.684 304.118 121.863 304.924 122.221C305.752 122.579 306.434 123.094 306.971 123.765C307.531 124.437 307.934 125.254 308.18 126.216C308.449 127.156 308.549 128.208 308.482 129.372ZM305.024 126.887C304.465 125.455 303.525 124.739 302.204 124.739C300.66 124.784 299.754 125.5 299.485 126.887H305.024Z" stroke="#372900"/>
<path d="M120.798 99.9418V56.972H102.267V99.9418H83.7361V42.4697C83.7361 34.8605 83.199 29.5788 82.1248 26.6247C81.14 23.581 78.9916 19.9106 75.6793 15.6137L91.793 4.33411C94.6576 6.21403 97.1194 9.70532 99.1784 14.808C101.237 19.8211 102.267 25.9085 102.267 33.0701V40.8584H120.798V5.94547H139.328V99.9418H120.798Z" stroke="#372900"/>
<path d="M151.438 27.5646H169.163V74.0256C169.163 78.5912 169.7 82.1272 170.774 84.6338C171.848 87.1404 173.549 89.3336 175.877 91.2135L161.106 101.553C154.66 96.4505 151.438 89.1993 151.438 79.7997V27.5646Z" stroke="#372900"/>
<path d="M237.334 33.0701V40.8584H241.362C242.884 40.8584 244.451 40.0527 246.062 38.4413C247.763 36.7404 249.016 35.1738 249.822 33.7415C250.717 32.2197 251.613 27.9675 252.508 20.9849C253.403 13.9128 253.851 8.89963 253.851 5.94547H272.381C272.381 9.43676 271.889 14.8975 270.904 22.3277C269.919 29.7579 269.024 34.3234 268.219 36.0243C266.876 38.9785 263.474 42.9621 258.013 47.9752C264.369 53.436 268.487 58.0463 270.367 61.8061C271.262 63.6861 272.157 69.3706 273.053 78.8597C274.037 88.2594 274.53 95.2867 274.53 99.9418H255.999C255.999 95.7343 255.551 89.1546 254.656 80.2025C253.851 71.161 253.045 65.9241 252.239 64.4917C249.464 59.4786 246.197 56.972 242.437 56.972H237.334V99.9418H218.803V41.1269C218.803 33.8758 218.266 28.8627 217.192 26.0875C216.207 23.2229 214.059 19.7316 210.747 15.6137L226.86 4.33411C229.725 6.21403 232.187 9.70532 234.246 14.808C236.305 19.8211 237.334 25.9085 237.334 33.0701Z" stroke="#372900"/>
<path d="M288.653 99.9418V5.94547C298.888 5.94547 307.184 14.2419 307.184 24.4761V89.9418C307.184 95.4646 302.707 99.9418 297.184 99.9418H288.653Z" stroke="#372900"/>
<path d="M69.7511 96.9352H28.8986C23.7321 96.9352 -2.38197 115.521 3.99716 107.484C10.3763 99.4468 10.3764 83.48 10.3764 78.4185V21.0167C10.3764 10.7902 18.6691 2.5 28.8986 2.5H83" stroke="#372900" stroke-width="5"/>
<path d="M157.228 16.2778C160.63 19.232 160.839 23.1701 160.839 23.1701C160.839 23.1701 161.737 19.232 165.228 16.2778C168.63 13.3236 172.521 12.2494 172.521 12.2494C172.521 12.2494 169.63 11.1243 166.228 8.17014C162.826 5.30549 160.839 1.67014 160.839 1.67014C160.839 1.67014 159.13 5.21597 155.728 8.17014C152.237 11.1243 149.156 12.3837 149.156 12.3837C149.156 12.3837 153.826 13.4132 157.228 16.2778Z" fill="#372900"/>
<path d="M157.228 16.2778C160.63 19.232 160.839 23.1701 160.839 23.1701C160.839 23.1701 161.737 19.232 165.228 16.2778C168.63 13.3236 172.521 12.2494 172.521 12.2494C172.521 12.2494 169.63 11.1243 166.228 8.17014C162.826 5.30549 160.839 1.67014 160.839 1.67014C160.839 1.67014 159.13 5.21597 155.728 8.17014C152.237 11.1243 149.156 12.3837 149.156 12.3837C149.156 12.3837 153.826 13.4132 157.228 16.2778Z" stroke="#372900"/>
<path d="M72 97C72 98.3807 70.8807 99.5 69.5 99.5C68.1193 99.5 67 98.3807 67 97C67 95.6193 68.1193 94.5 69.5 94.5C70.8807 94.5 72 95.6193 72 97Z" fill="#372900"/>
<path d="M29.7666 134.474C29.1623 134.72 28.7147 134.888 28.4238 134.978C28.1105 135.067 27.7748 135.134 27.4167 135.179C27.081 135.246 26.7117 135.291 26.3089 135.313C24.2499 135.403 22.5714 134.754 21.2734 133.366C20.0648 132.068 19.4606 130.435 19.4606 128.465C19.5053 126.72 20.0536 125.231 21.1055 124C22.2021 122.769 23.6345 122.053 25.4025 121.852C26.6781 121.718 27.9538 121.829 29.2295 122.188L28.6588 125.31C27.8531 124.996 27.0586 124.84 26.2753 124.84C25.1115 124.84 24.194 125.164 23.5226 125.813C22.8512 126.462 22.5155 127.391 22.5155 128.599C22.5155 129.114 22.605 129.595 22.784 130.043C22.9854 130.468 23.2428 130.849 23.5561 131.184C23.8918 131.52 24.2723 131.789 24.6975 131.99C25.1451 132.169 25.6263 132.259 26.141 132.259C26.9915 132.281 27.8867 132.068 28.8266 131.621L29.7666 134.474Z" fill="#372900"/>
<path d="M44.5765 134.911H41.1859L41.1524 129.137C41.1076 127.637 40.9957 126.63 40.8167 126.115C40.481 125.22 39.7536 124.75 38.6346 124.705C37.8289 124.683 37.1016 125.03 36.4526 125.746C36.0049 126.283 35.714 126.798 35.5797 127.29C35.5573 128.297 35.5462 129.439 35.5462 130.714C35.5462 131.968 35.5462 133.366 35.5462 134.911H32.1556C32.2003 133.747 32.2339 132.214 32.2563 130.312C32.2787 128.409 32.2899 126.138 32.2899 123.497V121.919C32.3346 117.846 32.2675 115.183 32.0884 113.929H35.6469C35.6021 114.69 35.5574 115.753 35.5126 117.118C35.4902 118.484 35.479 120.173 35.479 122.188V123.497C36.2399 122.266 37.5827 121.65 39.5074 121.65C42.8421 121.65 44.5094 123.877 44.5094 128.331V132.292C44.5094 133.098 44.5206 133.758 44.5429 134.273C44.5653 134.765 44.5765 134.978 44.5765 134.911Z" fill="#372900"/>
<path d="M59.4258 134.441C58.8663 135.067 58.2061 135.381 57.4451 135.381C56.0576 135.381 55.2295 134.832 54.961 133.736C53.6405 134.788 52.1858 135.313 50.5968 135.313C48.2469 135.313 47.072 134.105 47.072 131.688C47.072 129.92 47.8441 128.667 49.3883 127.928C50.3283 127.48 52.1523 127.078 54.8603 126.72V125.847C54.8603 124.929 54.2448 124.47 53.0139 124.47C52.5439 124.47 52.0516 124.526 51.5368 124.638C51.0221 124.75 50.5297 124.918 50.0597 125.142C49.5897 125.343 49.1421 125.601 48.7169 125.914C48.3141 126.205 47.9784 126.529 47.7098 126.887V123.765C48.8064 122.49 50.3842 121.785 52.4432 121.65C54.0098 121.561 55.2743 121.785 56.2366 122.322C57.3556 122.971 57.9151 123.989 57.9151 125.377V132.292C57.9151 132.807 58.1054 133.064 58.4858 133.064C58.732 133.064 59.0453 132.84 59.4258 132.393V134.441ZM54.8603 131.453L54.8267 129.137C54.2 129.226 53.6517 129.316 53.1817 129.405C52.7341 129.495 52.3649 129.584 52.0739 129.674C50.8206 130.032 50.1716 130.569 50.1269 131.285C50.0821 132.27 50.5745 132.762 51.604 132.762C52.1411 132.762 52.7341 132.628 53.3832 132.359C54.0322 132.091 54.5246 131.789 54.8603 131.453Z" fill="#372900"/>
<path d="M68.1459 121.852V124.638H65.8967C65.8519 124.884 65.8184 125.891 65.796 127.659C65.7736 128.823 65.7512 129.595 65.7288 129.976C65.7288 130.334 65.7288 130.323 65.7288 129.942C65.7288 131.173 65.8631 131.789 66.1317 131.789C66.266 131.789 66.4562 131.699 66.7024 131.52C66.9709 131.319 67.1388 131.207 67.2059 131.184C67.2731 131.274 67.4633 132.191 67.7766 133.937C66.1876 134.877 64.7217 135.302 63.3789 135.213C62.8642 135.168 62.6068 134.194 62.6068 132.292C62.6068 132.135 62.6404 131.061 62.7075 129.069C62.7299 128.711 62.7411 128.174 62.7411 127.458C62.7411 126.742 62.7523 125.813 62.7747 124.672H60.8612C60.8835 124.649 60.8947 124.179 60.8947 123.262V121.885H62.8082C62.8306 121.304 62.8418 120.722 62.8418 120.14C62.8418 119.558 62.8418 118.976 62.8418 118.394L65.9303 117.521V121.885C67.385 121.885 68.1235 121.874 68.1459 121.852Z" fill="#372900"/>
<path d="M96.3726 134.441C95.8131 135.067 95.1529 135.381 94.3919 135.381C93.0044 135.381 92.1763 134.832 91.9077 133.736C90.5873 134.788 89.1326 135.313 87.5436 135.313C85.1937 135.313 84.0188 134.105 84.0188 131.688C84.0188 129.92 84.7909 128.667 86.3351 127.928C87.2751 127.48 89.099 127.078 91.807 126.72V125.847C91.807 124.929 91.1916 124.47 89.9607 124.47C89.4907 124.47 88.9983 124.526 88.4836 124.638C87.9689 124.75 87.4765 124.918 87.0065 125.142C86.5365 125.343 86.0889 125.601 85.6637 125.914C85.2609 126.205 84.9252 126.529 84.6566 126.887V123.765C85.7532 122.49 87.331 121.785 89.39 121.65C90.9566 121.561 92.2211 121.785 93.1834 122.322C94.3024 122.971 94.8619 123.989 94.8619 125.377V132.292C94.8619 132.807 95.0521 133.064 95.4326 133.064C95.6788 133.064 95.9921 132.84 96.3726 132.393V134.441ZM91.807 131.453L91.7735 129.137C91.1468 129.226 90.5985 129.316 90.1285 129.405C89.6809 129.495 89.3117 129.584 89.0207 129.674C87.7674 130.032 87.1184 130.569 87.0736 131.285C87.0289 132.27 87.5213 132.762 88.5507 132.762C89.0879 132.762 89.6809 132.628 90.3299 132.359C90.979 132.091 91.4713 131.789 91.807 131.453Z" fill="#372900"/>
<path d="M101.937 113.929C101.892 114.511 101.859 115.574 101.836 117.118C101.814 118.663 101.792 120.688 101.769 123.195C101.769 123.866 101.769 124.784 101.769 125.947C101.792 127.089 101.814 128.499 101.836 130.177C101.859 131.878 101.87 133.12 101.87 133.904C101.892 134.687 101.904 135.023 101.904 134.911H98.4458C98.4905 133.747 98.5241 132.214 98.5465 130.312C98.5689 128.409 98.5801 126.138 98.5801 123.497C98.6024 118.663 98.5353 115.474 98.3786 113.929H101.937Z" fill="#372900"/>
<path d="M117.29 129.372H107.756C107.846 131.319 108.875 132.292 110.844 132.292C111.091 132.292 111.37 132.259 111.684 132.191C112.78 132.012 113.608 131.643 114.168 131.084L116.182 133.702C114.459 134.664 112.881 135.179 111.449 135.246C109.233 135.358 107.487 134.821 106.212 133.635C104.936 132.426 104.298 130.67 104.298 128.364C104.298 126.529 104.947 124.963 106.245 123.665C107.521 122.389 109.076 121.729 110.912 121.684C111.986 121.684 112.926 121.863 113.731 122.221C114.56 122.579 115.242 123.094 115.779 123.765C116.339 124.437 116.742 125.254 116.988 126.216C117.256 127.156 117.357 128.208 117.29 129.372ZM113.832 126.887C113.273 125.455 112.333 124.739 111.012 124.739C109.468 124.784 108.562 125.5 108.293 126.887H113.832Z" fill="#372900"/>
<path d="M140.07 134.911L136.78 134.944C136.802 134.362 136.813 133.68 136.813 132.896C136.836 132.091 136.836 131.151 136.813 130.077C136.791 129.181 136.757 128.443 136.713 127.861C136.69 127.257 136.645 126.798 136.578 126.485C136.287 125.186 135.65 124.537 134.665 124.537C133.747 124.537 132.942 124.784 132.248 125.276C132.069 125.433 131.901 125.589 131.744 125.746C131.588 125.903 131.42 126.059 131.241 126.216C131.263 126.485 131.274 126.82 131.274 127.223C131.274 127.604 131.274 128.051 131.274 128.566L131.308 134.911H128.186C128.186 134.485 128.186 133.993 128.186 133.434C128.186 132.852 128.197 132.191 128.219 131.453C128.242 130.356 128.242 129.383 128.219 128.532C128.175 127.078 128.063 126.115 127.884 125.645C127.526 124.817 126.787 124.403 125.668 124.403C124.773 124.403 124.023 124.705 123.419 125.31C123.307 125.466 123.184 125.623 123.05 125.78C122.915 125.936 122.792 126.104 122.68 126.283V134.911H119.458C119.502 133.747 119.536 132.214 119.558 130.312C119.581 128.409 119.592 126.138 119.592 123.497C119.569 123.363 119.558 123.161 119.558 122.893C119.558 122.624 119.547 122.288 119.525 121.885H122.613L122.58 123.363C123.699 122.176 125.086 121.583 126.742 121.583C128.555 121.583 129.786 122.255 130.435 123.598C130.771 123.195 131.319 122.803 132.08 122.423C133.177 121.863 134.318 121.583 135.504 121.583C137.071 121.583 138.19 122.064 138.861 123.027C139.622 124.079 140.002 125.925 140.002 128.566V132.46C140.025 133.243 140.036 133.87 140.036 134.34C140.058 134.788 140.07 134.978 140.07 134.911Z" fill="#372900"/>
<path d="M154.956 134.441C154.397 135.067 153.737 135.381 152.976 135.381C151.588 135.381 150.76 134.832 150.492 133.736C149.171 134.788 147.716 135.313 146.127 135.313C143.777 135.313 142.603 134.105 142.603 131.688C142.603 129.92 143.375 128.667 144.919 127.928C145.859 127.48 147.683 127.078 150.391 126.72V125.847C150.391 124.929 149.775 124.47 148.544 124.47C148.074 124.47 147.582 124.526 147.067 124.638C146.553 124.75 146.06 124.918 145.59 125.142C145.12 125.343 144.673 125.601 144.247 125.914C143.845 126.205 143.509 126.529 143.24 126.887V123.765C144.337 122.49 145.915 121.785 147.974 121.65C149.54 121.561 150.805 121.785 151.767 122.322C152.886 122.971 153.446 123.989 153.446 125.377V132.292C153.446 132.807 153.636 133.064 154.016 133.064C154.263 133.064 154.576 132.84 154.956 132.393V134.441ZM150.391 131.453L150.357 129.137C149.731 129.226 149.182 129.316 148.712 129.405C148.265 129.495 147.895 129.584 147.604 129.674C146.351 130.032 145.702 130.569 145.657 131.285C145.613 132.27 146.105 132.762 147.135 132.762C147.672 132.762 148.265 132.628 148.914 132.359C149.563 132.091 150.055 131.789 150.391 131.453ZM155.326 116.179C154.923 118.327 153.949 119.401 152.405 119.401C151.219 119.401 150.044 119.133 148.88 118.596C147.739 118.036 146.866 117.756 146.262 117.756C145.635 117.734 145.131 118.226 144.751 119.233L142.535 118.461C142.647 117.23 143.05 116.268 143.744 115.574C144.303 115.015 144.908 114.713 145.557 114.668C146.43 114.623 147.493 114.88 148.746 115.44C150.044 115.977 151.085 116.246 151.868 116.246C152.472 116.246 152.797 115.753 152.841 114.769C153.267 114.992 153.681 115.227 154.084 115.474C154.486 115.697 154.9 115.932 155.326 116.179Z" fill="#372900"/>
<path d="M169.853 128.432C169.853 130.468 169.204 132.102 167.906 133.333C166.586 134.586 164.986 135.213 163.106 135.213C161.047 135.213 159.368 134.541 158.07 133.199C156.817 131.923 156.213 130.312 156.257 128.364C156.28 126.462 156.918 124.884 158.171 123.631C159.447 122.355 161.092 121.718 163.106 121.718C165.142 121.718 166.776 122.333 168.007 123.564C169.238 124.795 169.853 126.417 169.853 128.432ZM166.563 128.264C166.563 127.189 166.239 126.305 165.59 125.612C164.941 124.918 164.102 124.571 163.072 124.571C161.998 124.571 161.114 124.918 160.42 125.612C159.749 126.305 159.413 127.189 159.413 128.264C159.391 129.248 159.738 130.121 160.454 130.882C161.17 131.598 162.043 131.956 163.072 131.956C164.079 131.956 164.907 131.632 165.556 130.983C166.205 130.312 166.541 129.405 166.563 128.264Z" fill="#372900"/>
<path d="M188.545 117.79C188.545 118.237 188.355 118.64 187.974 118.998C187.616 119.356 187.191 119.536 186.699 119.536C186.206 119.558 185.781 119.39 185.423 119.032C185.087 118.674 184.919 118.26 184.919 117.79C184.919 117.298 185.099 116.872 185.457 116.514C185.815 116.134 186.229 115.944 186.699 115.944C187.191 115.944 187.616 116.134 187.974 116.514C188.355 116.872 188.545 117.298 188.545 117.79ZM188.377 135.045H185.154C185.356 130.323 185.356 125.959 185.154 121.953H188.377C188.198 126.361 188.198 130.726 188.377 135.045Z" fill="#372900"/>
<path d="M203.477 134.911H200.087L200.053 129.137C200.008 127.637 199.896 126.63 199.717 126.115C199.382 125.175 198.654 124.705 197.535 124.705C195.946 124.705 194.928 125.567 194.48 127.29C194.458 128.297 194.447 129.439 194.447 130.714C194.447 131.968 194.447 133.366 194.447 134.911H191.056C191.101 133.747 191.135 132.214 191.157 130.312C191.179 128.409 191.191 126.138 191.191 123.497C191.168 123.251 191.146 123.004 191.123 122.758C191.101 122.49 191.079 122.199 191.056 121.885H194.548C194.525 122.176 194.503 122.456 194.48 122.725C194.458 122.993 194.424 123.251 194.38 123.497C195.141 122.266 196.483 121.65 198.408 121.65C201.743 121.65 203.41 123.877 203.41 128.331V132.292C203.41 133.098 203.421 133.758 203.444 134.273C203.466 134.765 203.477 134.978 203.477 134.911Z" fill="#372900"/>
<path d="M212.72 121.852V124.638H210.471C210.426 124.884 210.393 125.891 210.37 127.659C210.348 128.823 210.326 129.595 210.303 129.976C210.303 130.334 210.303 130.323 210.303 129.942C210.303 131.173 210.438 131.789 210.706 131.789C210.84 131.789 211.031 131.699 211.277 131.52C211.545 131.319 211.713 131.207 211.78 131.184C211.847 131.274 212.038 132.191 212.351 133.937C210.762 134.877 209.296 135.302 207.953 135.213C207.439 135.168 207.181 134.194 207.181 132.292C207.181 132.135 207.215 131.061 207.282 129.069C207.304 128.711 207.315 128.174 207.315 127.458C207.315 126.742 207.327 125.813 207.349 124.672H205.436C205.458 124.649 205.469 124.179 205.469 123.262V121.885H207.383C207.405 121.304 207.416 120.722 207.416 120.14C207.416 119.558 207.416 118.976 207.416 118.394L210.505 117.521V121.885C211.959 121.885 212.698 121.874 212.72 121.852Z" fill="#372900"/>
<path d="M227.639 129.372H218.105C218.194 131.319 219.224 132.292 221.193 132.292C221.439 132.292 221.719 132.259 222.032 132.191C223.129 132.012 223.957 131.643 224.516 131.084L226.531 133.702C224.807 134.664 223.23 135.179 221.797 135.246C219.582 135.358 217.836 134.821 216.56 133.635C215.285 132.426 214.647 130.67 214.647 128.364C214.647 126.529 215.296 124.963 216.594 123.665C217.87 122.389 219.425 121.729 221.26 121.684C222.334 121.684 223.274 121.863 224.08 122.221C224.908 122.579 225.591 123.094 226.128 123.765C226.687 124.437 227.09 125.254 227.336 126.216C227.605 127.156 227.706 128.208 227.639 129.372ZM224.181 126.887C223.621 125.455 222.681 124.739 221.361 124.739C219.817 124.784 218.91 125.5 218.642 126.887H224.181Z" fill="#372900"/>
<path d="M233.398 113.929C233.353 114.511 233.32 115.574 233.297 117.118C233.275 118.663 233.253 120.688 233.23 123.195C233.23 123.866 233.23 124.784 233.23 125.947C233.253 127.089 233.275 128.499 233.297 130.177C233.32 131.878 233.331 133.12 233.331 133.904C233.353 134.687 233.365 135.023 233.365 134.911H229.907C229.952 133.747 229.985 132.214 230.008 130.312C230.03 128.409 230.041 126.138 230.041 123.497C230.064 118.663 229.996 115.474 229.84 113.929H233.398Z" fill="#372900"/>
<path d="M239.687 117.79C239.687 118.237 239.497 118.64 239.116 118.998C238.758 119.356 238.333 119.536 237.841 119.536C237.348 119.558 236.923 119.39 236.565 119.032C236.229 118.674 236.061 118.26 236.061 117.79C236.061 117.298 236.24 116.872 236.599 116.514C236.957 116.134 237.371 115.944 237.841 115.944C238.333 115.944 238.758 116.134 239.116 116.514C239.497 116.872 239.687 117.298 239.687 117.79ZM239.519 135.045H236.296C236.498 130.323 236.498 125.959 236.296 121.953H239.519C239.34 126.361 239.34 130.726 239.519 135.045Z" fill="#372900"/>
<path d="M254.518 121.852C254.429 122.367 254.362 123.004 254.317 123.765C254.295 124.504 254.283 125.377 254.283 126.384C254.306 127.145 254.317 127.906 254.317 128.667C254.317 129.427 254.328 130.188 254.351 130.949V134.206C254.373 134.899 254.384 135.448 254.384 135.851C254.384 136.276 254.384 136.567 254.384 136.723C254.384 138.536 253.825 139.946 252.706 140.953C251.654 141.893 250.277 142.363 248.577 142.363C248.465 142.363 248.342 142.363 248.207 142.363C248.073 142.363 247.939 142.352 247.804 142.33C247.021 142.262 246.148 142.027 245.186 141.625C244.179 141.244 243.407 141.02 242.87 140.953L244.481 137.764C245.891 138.838 247.256 139.375 248.577 139.375C249.539 139.375 250.244 139.152 250.691 138.704C251.139 138.279 251.363 137.518 251.363 136.421V134.105C250.691 134.709 249.696 135.023 248.375 135.045C246.271 135.09 244.638 134.519 243.474 133.333C242.31 132.147 241.739 130.468 241.762 128.297C241.762 127.268 241.93 126.339 242.265 125.511C242.601 124.661 243.071 123.944 243.675 123.363C244.28 122.758 244.996 122.311 245.824 122.02C246.674 121.729 247.603 121.594 248.61 121.617C250.087 121.662 251.173 122.064 251.866 122.825L252.269 121.852H254.518ZM251.329 125.847C250.591 125.019 249.673 124.605 248.577 124.605C247.525 124.605 246.663 124.907 245.992 125.511C245.253 126.182 244.895 127.122 244.917 128.331C244.94 129.427 245.275 130.323 245.924 131.016C246.596 131.71 247.469 132.057 248.543 132.057C249.662 132.057 250.58 131.654 251.296 130.849C251.296 130.132 251.296 129.36 251.296 128.532C251.296 127.682 251.307 126.787 251.329 125.847Z" fill="#372900"/>
<path d="M269.732 129.372H260.198C260.288 131.319 261.317 132.292 263.287 132.292C263.533 132.292 263.813 132.259 264.126 132.191C265.223 132.012 266.051 131.643 266.61 131.084L268.624 133.702C266.901 134.664 265.323 135.179 263.891 135.246C261.675 135.358 259.93 134.821 258.654 133.635C257.378 132.426 256.741 130.67 256.741 128.364C256.741 126.529 257.39 124.963 258.688 123.665C259.963 122.389 261.519 121.729 263.354 121.684C264.428 121.684 265.368 121.863 266.174 122.221C267.002 122.579 267.684 123.094 268.222 123.765C268.781 124.437 269.184 125.254 269.43 126.216C269.699 127.156 269.799 128.208 269.732 129.372ZM266.275 126.887C265.715 125.455 264.775 124.739 263.455 124.739C261.91 124.784 261.004 125.5 260.735 126.887H266.275Z" fill="#372900"/>
<path d="M284.321 134.911H280.93L280.897 129.137C280.852 127.637 280.74 126.63 280.561 126.115C280.225 125.175 279.498 124.705 278.379 124.705C276.79 124.705 275.772 125.567 275.324 127.29C275.302 128.297 275.29 129.439 275.29 130.714C275.29 131.968 275.29 133.366 275.29 134.911H271.9C271.945 133.747 271.978 132.214 272.001 130.312C272.023 128.409 272.034 126.138 272.034 123.497C272.012 123.251 271.989 123.004 271.967 122.758C271.945 122.49 271.922 122.199 271.9 121.885H275.391C275.369 122.176 275.346 122.456 275.324 122.725C275.302 122.993 275.268 123.251 275.223 123.497C275.984 122.266 277.327 121.65 279.252 121.65C282.586 121.65 284.254 123.877 284.254 128.331V132.292C284.254 133.098 284.265 133.758 284.287 134.273C284.31 134.765 284.321 134.978 284.321 134.911Z" fill="#372900"/>
<path d="M293.564 121.852V124.638H291.315C291.27 124.884 291.236 125.891 291.214 127.659C291.192 128.823 291.169 129.595 291.147 129.976C291.147 130.334 291.147 130.323 291.147 129.942C291.147 131.173 291.281 131.789 291.55 131.789C291.684 131.789 291.874 131.699 292.12 131.52C292.389 131.319 292.557 131.207 292.624 131.184C292.691 131.274 292.881 132.191 293.195 133.937C291.606 134.877 290.14 135.302 288.797 135.213C288.282 135.168 288.025 134.194 288.025 132.292C288.025 132.135 288.058 131.061 288.126 129.069C288.148 128.711 288.159 128.174 288.159 127.458C288.159 126.742 288.17 125.813 288.193 124.672H286.279C286.302 124.649 286.313 124.179 286.313 123.262V121.885H288.226C288.249 121.304 288.26 120.722 288.26 120.14C288.26 119.558 288.26 118.976 288.26 118.394L291.348 117.521V121.885C292.803 121.885 293.542 121.874 293.564 121.852Z" fill="#372900"/>
<path d="M308.482 129.372H298.948C299.038 131.319 300.067 132.292 302.037 132.292C302.283 132.292 302.563 132.259 302.876 132.191C303.973 132.012 304.801 131.643 305.36 131.084L307.374 133.702C305.651 134.664 304.073 135.179 302.641 135.246C300.425 135.358 298.68 134.821 297.404 133.635C296.128 132.426 295.491 130.67 295.491 128.364C295.491 126.529 296.14 124.963 297.438 123.665C298.713 122.389 300.269 121.729 302.104 121.684C303.178 121.684 304.118 121.863 304.924 122.221C305.752 122.579 306.434 123.094 306.971 123.765C307.531 124.437 307.934 125.254 308.18 126.216C308.449 127.156 308.549 128.208 308.482 129.372ZM305.024 126.887C304.465 125.455 303.525 124.739 302.204 124.739C300.66 124.784 299.754 125.5 299.485 126.887H305.024Z" fill="#372900"/>
<path d="M120.798 99.9418V56.972H102.267V99.9418H83.7361V42.4697C83.7361 34.8605 83.199 29.5788 82.1248 26.6247C81.14 23.581 78.9916 19.9106 75.6793 15.6137L91.793 4.33411C94.6576 6.21403 97.1194 9.70532 99.1784 14.808C101.237 19.8211 102.267 25.9085 102.267 33.0701V40.8584H120.798V5.94547H139.328V99.9418H120.798Z" fill="#372900"/>
<path d="M151.438 27.5646H169.163V74.0256C169.163 78.5912 169.7 82.1272 170.774 84.6338C171.848 87.1404 173.549 89.3336 175.877 91.2135L161.106 101.553C154.66 96.4505 151.438 89.1993 151.438 79.7997V27.5646Z" fill="#372900"/>
<path d="M237.334 33.0701V40.8584H241.362C242.884 40.8584 244.451 40.0527 246.062 38.4413C247.763 36.7404 249.016 35.1738 249.822 33.7415C250.717 32.2197 251.613 27.9675 252.508 20.9849C253.403 13.9128 253.851 8.89963 253.851 5.94547H272.381C272.381 9.43676 271.889 14.8975 270.904 22.3277C269.919 29.7579 269.024 34.3234 268.219 36.0243C266.876 38.9785 263.474 42.9621 258.013 47.9752C264.369 53.436 268.487 58.0463 270.367 61.8061C271.262 63.6861 272.157 69.3706 273.053 78.8597C274.037 88.2594 274.53 95.2867 274.53 99.9418H255.999C255.999 95.7343 255.551 89.1546 254.656 80.2025C253.851 71.161 253.045 65.9241 252.239 64.4917C249.464 59.4786 246.197 56.972 242.437 56.972H237.334V99.9418H218.803V41.1269C218.803 33.8758 218.266 28.8627 217.192 26.0875C216.207 23.2229 214.059 19.7316 210.747 15.6137L226.86 4.33411C229.725 6.21403 232.187 9.70532 234.246 14.808C236.305 19.8211 237.334 25.9085 237.334 33.0701Z" fill="#372900"/>
<path d="M288.653 99.9418V5.94547C298.888 5.94547 307.184 14.2419 307.184 24.4761V89.9418C307.184 95.4646 302.707 99.9418 297.184 99.9418H288.653Z" fill="#372900"/>
<path d="M29.7666 134.474C29.1623 134.72 28.7147 134.888 28.4238 134.978C28.1105 135.067 27.7748 135.134 27.4167 135.179C27.081 135.246 26.7117 135.291 26.3089 135.313C24.2499 135.403 22.5714 134.754 21.2734 133.366C20.0648 132.068 19.4606 130.435 19.4606 128.465C19.5053 126.72 20.0536 125.231 21.1055 124C22.2021 122.769 23.6345 122.053 25.4025 121.852C26.6781 121.718 27.9538 121.829 29.2295 122.188L28.6588 125.31C27.8531 124.996 27.0586 124.84 26.2753 124.84C25.1115 124.84 24.194 125.164 23.5226 125.813C22.8512 126.462 22.5155 127.391 22.5155 128.599C22.5155 129.114 22.605 129.595 22.784 130.043C22.9854 130.468 23.2428 130.849 23.5561 131.184C23.8918 131.52 24.2723 131.789 24.6975 131.99C25.1451 132.169 25.6263 132.259 26.141 132.259C26.9915 132.281 27.8867 132.068 28.8266 131.621L29.7666 134.474Z" stroke="#372900"/>
<path d="M44.5765 134.911H41.1859L41.1524 129.137C41.1076 127.637 40.9957 126.63 40.8167 126.115C40.481 125.22 39.7536 124.75 38.6346 124.705C37.8289 124.683 37.1016 125.03 36.4526 125.746C36.0049 126.283 35.714 126.798 35.5797 127.29C35.5573 128.297 35.5462 129.439 35.5462 130.714C35.5462 131.968 35.5462 133.366 35.5462 134.911H32.1556C32.2003 133.747 32.2339 132.214 32.2563 130.312C32.2787 128.409 32.2899 126.138 32.2899 123.497V121.919C32.3346 117.846 32.2675 115.183 32.0884 113.929H35.6469C35.6021 114.69 35.5574 115.753 35.5126 117.118C35.4902 118.484 35.479 120.173 35.479 122.188V123.497C36.2399 122.266 37.5827 121.65 39.5074 121.65C42.8421 121.65 44.5094 123.877 44.5094 128.331V132.292C44.5094 133.098 44.5206 133.758 44.5429 134.273C44.5653 134.765 44.5765 134.978 44.5765 134.911Z" stroke="#372900"/>
<path d="M59.4258 134.441C58.8663 135.067 58.2061 135.381 57.4451 135.381C56.0576 135.381 55.2295 134.832 54.961 133.736C53.6405 134.788 52.1858 135.313 50.5968 135.313C48.2469 135.313 47.072 134.105 47.072 131.688C47.072 129.92 47.8441 128.667 49.3883 127.928C50.3283 127.48 52.1523 127.078 54.8603 126.72V125.847C54.8603 124.929 54.2448 124.47 53.0139 124.47C52.5439 124.47 52.0516 124.526 51.5368 124.638C51.0221 124.75 50.5297 124.918 50.0597 125.142C49.5897 125.343 49.1421 125.601 48.7169 125.914C48.3141 126.205 47.9784 126.529 47.7098 126.887V123.765C48.8064 122.49 50.3842 121.785 52.4432 121.65C54.0098 121.561 55.2743 121.785 56.2366 122.322C57.3556 122.971 57.9151 123.989 57.9151 125.377V132.292C57.9151 132.807 58.1054 133.064 58.4858 133.064C58.732 133.064 59.0453 132.84 59.4258 132.393V134.441ZM54.8603 131.453L54.8267 129.137C54.2 129.226 53.6517 129.316 53.1817 129.405C52.7341 129.495 52.3649 129.584 52.0739 129.674C50.8206 130.032 50.1716 130.569 50.1269 131.285C50.0821 132.27 50.5745 132.762 51.604 132.762C52.1411 132.762 52.7341 132.628 53.3832 132.359C54.0322 132.091 54.5246 131.789 54.8603 131.453Z" stroke="#372900"/>
<path d="M68.1459 121.852V124.638H65.8967C65.8519 124.884 65.8184 125.891 65.796 127.659C65.7736 128.823 65.7512 129.595 65.7288 129.976C65.7288 130.334 65.7288 130.323 65.7288 129.942C65.7288 131.173 65.8631 131.789 66.1317 131.789C66.266 131.789 66.4562 131.699 66.7024 131.52C66.9709 131.319 67.1388 131.207 67.2059 131.184C67.2731 131.274 67.4633 132.191 67.7766 133.937C66.1876 134.877 64.7217 135.302 63.3789 135.213C62.8642 135.168 62.6068 134.194 62.6068 132.292C62.6068 132.135 62.6404 131.061 62.7075 129.069C62.7299 128.711 62.7411 128.174 62.7411 127.458C62.7411 126.742 62.7523 125.813 62.7747 124.672H60.8612C60.8835 124.649 60.8947 124.179 60.8947 123.262V121.885H62.8082C62.8306 121.304 62.8418 120.722 62.8418 120.14C62.8418 119.558 62.8418 118.976 62.8418 118.394L65.9303 117.521V121.885C67.385 121.885 68.1235 121.874 68.1459 121.852Z" stroke="#372900"/>
<path d="M96.3726 134.441C95.8131 135.067 95.1529 135.381 94.3919 135.381C93.0044 135.381 92.1763 134.832 91.9077 133.736C90.5873 134.788 89.1326 135.313 87.5436 135.313C85.1937 135.313 84.0188 134.105 84.0188 131.688C84.0188 129.92 84.7909 128.667 86.3351 127.928C87.2751 127.48 89.099 127.078 91.807 126.72V125.847C91.807 124.929 91.1916 124.47 89.9607 124.47C89.4907 124.47 88.9983 124.526 88.4836 124.638C87.9689 124.75 87.4765 124.918 87.0065 125.142C86.5365 125.343 86.0889 125.601 85.6637 125.914C85.2609 126.205 84.9252 126.529 84.6566 126.887V123.765C85.7532 122.49 87.331 121.785 89.39 121.65C90.9566 121.561 92.2211 121.785 93.1834 122.322C94.3024 122.971 94.8619 123.989 94.8619 125.377V132.292C94.8619 132.807 95.0521 133.064 95.4326 133.064C95.6788 133.064 95.9921 132.84 96.3726 132.393V134.441ZM91.807 131.453L91.7735 129.137C91.1468 129.226 90.5985 129.316 90.1285 129.405C89.6809 129.495 89.3117 129.584 89.0207 129.674C87.7674 130.032 87.1184 130.569 87.0736 131.285C87.0289 132.27 87.5213 132.762 88.5507 132.762C89.0879 132.762 89.6809 132.628 90.3299 132.359C90.979 132.091 91.4713 131.789 91.807 131.453Z" stroke="#372900"/>
<path d="M101.937 113.929C101.892 114.511 101.859 115.574 101.836 117.118C101.814 118.663 101.792 120.688 101.769 123.195C101.769 123.866 101.769 124.784 101.769 125.947C101.792 127.089 101.814 128.499 101.836 130.177C101.859 131.878 101.87 133.12 101.87 133.904C101.892 134.687 101.904 135.023 101.904 134.911H98.4458C98.4905 133.747 98.5241 132.214 98.5465 130.312C98.5689 128.409 98.5801 126.138 98.5801 123.497C98.6024 118.663 98.5353 115.474 98.3786 113.929H101.937Z" stroke="#372900"/>
<path d="M117.29 129.372H107.756C107.846 131.319 108.875 132.292 110.844 132.292C111.091 132.292 111.37 132.259 111.684 132.191C112.78 132.012 113.608 131.643 114.168 131.084L116.182 133.702C114.459 134.664 112.881 135.179 111.449 135.246C109.233 135.358 107.487 134.821 106.212 133.635C104.936 132.426 104.298 130.67 104.298 128.364C104.298 126.529 104.947 124.963 106.245 123.665C107.521 122.389 109.076 121.729 110.912 121.684C111.986 121.684 112.926 121.863 113.731 122.221C114.56 122.579 115.242 123.094 115.779 123.765C116.339 124.437 116.742 125.254 116.988 126.216C117.256 127.156 117.357 128.208 117.29 129.372ZM113.832 126.887C113.273 125.455 112.333 124.739 111.012 124.739C109.468 124.784 108.562 125.5 108.293 126.887H113.832Z" stroke="#372900"/>
<path d="M140.07 134.911L136.78 134.944C136.802 134.362 136.813 133.68 136.813 132.896C136.836 132.091 136.836 131.151 136.813 130.077C136.791 129.181 136.757 128.443 136.713 127.861C136.69 127.257 136.645 126.798 136.578 126.485C136.287 125.186 135.65 124.537 134.665 124.537C133.747 124.537 132.942 124.784 132.248 125.276C132.069 125.433 131.901 125.589 131.744 125.746C131.588 125.903 131.42 126.059 131.241 126.216C131.263 126.485 131.274 126.82 131.274 127.223C131.274 127.604 131.274 128.051 131.274 128.566L131.308 134.911H128.186C128.186 134.485 128.186 133.993 128.186 133.434C128.186 132.852 128.197 132.191 128.219 131.453C128.242 130.356 128.242 129.383 128.219 128.532C128.175 127.078 128.063 126.115 127.884 125.645C127.526 124.817 126.787 124.403 125.668 124.403C124.773 124.403 124.023 124.705 123.419 125.31C123.307 125.466 123.184 125.623 123.05 125.78C122.915 125.936 122.792 126.104 122.68 126.283V134.911H119.458C119.502 133.747 119.536 132.214 119.558 130.312C119.581 128.409 119.592 126.138 119.592 123.497C119.569 123.363 119.558 123.161 119.558 122.893C119.558 122.624 119.547 122.288 119.525 121.885H122.613L122.58 123.363C123.699 122.176 125.086 121.583 126.742 121.583C128.555 121.583 129.786 122.255 130.435 123.598C130.771 123.195 131.319 122.803 132.08 122.423C133.177 121.863 134.318 121.583 135.504 121.583C137.071 121.583 138.19 122.064 138.861 123.027C139.622 124.079 140.002 125.925 140.002 128.566V132.46C140.025 133.243 140.036 133.87 140.036 134.34C140.058 134.788 140.07 134.978 140.07 134.911Z" stroke="#372900"/>
<path d="M154.956 134.441C154.397 135.067 153.737 135.381 152.976 135.381C151.588 135.381 150.76 134.832 150.492 133.736C149.171 134.788 147.716 135.313 146.127 135.313C143.777 135.313 142.603 134.105 142.603 131.688C142.603 129.92 143.375 128.667 144.919 127.928C145.859 127.48 147.683 127.078 150.391 126.72V125.847C150.391 124.929 149.775 124.47 148.544 124.47C148.074 124.47 147.582 124.526 147.067 124.638C146.553 124.75 146.06 124.918 145.59 125.142C145.12 125.343 144.673 125.601 144.247 125.914C143.845 126.205 143.509 126.529 143.24 126.887V123.765C144.337 122.49 145.915 121.785 147.974 121.65C149.54 121.561 150.805 121.785 151.767 122.322C152.886 122.971 153.446 123.989 153.446 125.377V132.292C153.446 132.807 153.636 133.064 154.016 133.064C154.263 133.064 154.576 132.84 154.956 132.393V134.441ZM150.391 131.453L150.357 129.137C149.731 129.226 149.182 129.316 148.712 129.405C148.265 129.495 147.895 129.584 147.604 129.674C146.351 130.032 145.702 130.569 145.657 131.285C145.613 132.27 146.105 132.762 147.135 132.762C147.672 132.762 148.265 132.628 148.914 132.359C149.563 132.091 150.055 131.789 150.391 131.453ZM155.326 116.179C154.923 118.327 153.949 119.401 152.405 119.401C151.219 119.401 150.044 119.133 148.88 118.596C147.739 118.036 146.866 117.756 146.262 117.756C145.635 117.734 145.131 118.226 144.751 119.233L142.535 118.461C142.647 117.23 143.05 116.268 143.744 115.574C144.303 115.015 144.908 114.713 145.557 114.668C146.43 114.623 147.493 114.88 148.746 115.44C150.044 115.977 151.085 116.246 151.868 116.246C152.472 116.246 152.797 115.753 152.841 114.769C153.267 114.992 153.681 115.227 154.084 115.474C154.486 115.697 154.9 115.932 155.326 116.179Z" stroke="#372900"/>
<path d="M169.853 128.432C169.853 130.468 169.204 132.102 167.906 133.333C166.586 134.586 164.986 135.213 163.106 135.213C161.047 135.213 159.368 134.541 158.07 133.199C156.817 131.923 156.213 130.312 156.257 128.364C156.28 126.462 156.918 124.884 158.171 123.631C159.447 122.355 161.092 121.718 163.106 121.718C165.142 121.718 166.776 122.333 168.007 123.564C169.238 124.795 169.853 126.417 169.853 128.432ZM166.563 128.264C166.563 127.189 166.239 126.305 165.59 125.612C164.941 124.918 164.102 124.571 163.072 124.571C161.998 124.571 161.114 124.918 160.42 125.612C159.749 126.305 159.413 127.189 159.413 128.264C159.391 129.248 159.738 130.121 160.454 130.882C161.17 131.598 162.043 131.956 163.072 131.956C164.079 131.956 164.907 131.632 165.556 130.983C166.205 130.312 166.541 129.405 166.563 128.264Z" stroke="#372900"/>
<path d="M188.545 117.79C188.545 118.237 188.355 118.64 187.974 118.998C187.616 119.356 187.191 119.536 186.699 119.536C186.206 119.558 185.781 119.39 185.423 119.032C185.087 118.674 184.919 118.26 184.919 117.79C184.919 117.298 185.099 116.872 185.457 116.514C185.815 116.134 186.229 115.944 186.699 115.944C187.191 115.944 187.616 116.134 187.974 116.514C188.355 116.872 188.545 117.298 188.545 117.79ZM188.377 135.045H185.154C185.356 130.323 185.356 125.959 185.154 121.953H188.377C188.198 126.361 188.198 130.726 188.377 135.045Z" stroke="#372900"/>
<path d="M203.477 134.911H200.087L200.053 129.137C200.008 127.637 199.896 126.63 199.717 126.115C199.382 125.175 198.654 124.705 197.535 124.705C195.946 124.705 194.928 125.567 194.48 127.29C194.458 128.297 194.447 129.439 194.447 130.714C194.447 131.968 194.447 133.366 194.447 134.911H191.056C191.101 133.747 191.135 132.214 191.157 130.312C191.179 128.409 191.191 126.138 191.191 123.497C191.168 123.251 191.146 123.004 191.123 122.758C191.101 122.49 191.079 122.199 191.056 121.885H194.548C194.525 122.176 194.503 122.456 194.48 122.725C194.458 122.993 194.424 123.251 194.38 123.497C195.141 122.266 196.483 121.65 198.408 121.65C201.743 121.65 203.41 123.877 203.41 128.331V132.292C203.41 133.098 203.421 133.758 203.444 134.273C203.466 134.765 203.477 134.978 203.477 134.911Z" stroke="#372900"/>
<path d="M212.72 121.852V124.638H210.471C210.426 124.884 210.393 125.891 210.37 127.659C210.348 128.823 210.326 129.595 210.303 129.976C210.303 130.334 210.303 130.323 210.303 129.942C210.303 131.173 210.438 131.789 210.706 131.789C210.84 131.789 211.031 131.699 211.277 131.52C211.545 131.319 211.713 131.207 211.78 131.184C211.847 131.274 212.038 132.191 212.351 133.937C210.762 134.877 209.296 135.302 207.953 135.213C207.439 135.168 207.181 134.194 207.181 132.292C207.181 132.135 207.215 131.061 207.282 129.069C207.304 128.711 207.315 128.174 207.315 127.458C207.315 126.742 207.327 125.813 207.349 124.672H205.436C205.458 124.649 205.469 124.179 205.469 123.262V121.885H207.383C207.405 121.304 207.416 120.722 207.416 120.14C207.416 119.558 207.416 118.976 207.416 118.394L210.505 117.521V121.885C211.959 121.885 212.698 121.874 212.72 121.852Z" stroke="#372900"/>
<path d="M227.639 129.372H218.105C218.194 131.319 219.224 132.292 221.193 132.292C221.439 132.292 221.719 132.259 222.032 132.191C223.129 132.012 223.957 131.643 224.516 131.084L226.531 133.702C224.807 134.664 223.23 135.179 221.797 135.246C219.582 135.358 217.836 134.821 216.56 133.635C215.285 132.426 214.647 130.67 214.647 128.364C214.647 126.529 215.296 124.963 216.594 123.665C217.87 122.389 219.425 121.729 221.26 121.684C222.334 121.684 223.274 121.863 224.08 122.221C224.908 122.579 225.591 123.094 226.128 123.765C226.687 124.437 227.09 125.254 227.336 126.216C227.605 127.156 227.706 128.208 227.639 129.372ZM224.181 126.887C223.621 125.455 222.681 124.739 221.361 124.739C219.817 124.784 218.91 125.5 218.642 126.887H224.181Z" stroke="#372900"/>
<path d="M233.398 113.929C233.353 114.511 233.32 115.574 233.297 117.118C233.275 118.663 233.253 120.688 233.23 123.195C233.23 123.866 233.23 124.784 233.23 125.947C233.253 127.089 233.275 128.499 233.297 130.177C233.32 131.878 233.331 133.12 233.331 133.904C233.353 134.687 233.365 135.023 233.365 134.911H229.907C229.952 133.747 229.985 132.214 230.008 130.312C230.03 128.409 230.041 126.138 230.041 123.497C230.064 118.663 229.996 115.474 229.84 113.929H233.398Z" stroke="#372900"/>
<path d="M239.687 117.79C239.687 118.237 239.497 118.64 239.116 118.998C238.758 119.356 238.333 119.536 237.841 119.536C237.348 119.558 236.923 119.39 236.565 119.032C236.229 118.674 236.061 118.26 236.061 117.79C236.061 117.298 236.24 116.872 236.599 116.514C236.957 116.134 237.371 115.944 237.841 115.944C238.333 115.944 238.758 116.134 239.116 116.514C239.497 116.872 239.687 117.298 239.687 117.79ZM239.519 135.045H236.296C236.498 130.323 236.498 125.959 236.296 121.953H239.519C239.34 126.361 239.34 130.726 239.519 135.045Z" stroke="#372900"/>
<path d="M254.518 121.852C254.429 122.367 254.362 123.004 254.317 123.765C254.295 124.504 254.283 125.377 254.283 126.384C254.306 127.145 254.317 127.906 254.317 128.667C254.317 129.427 254.328 130.188 254.351 130.949V134.206C254.373 134.899 254.384 135.448 254.384 135.851C254.384 136.276 254.384 136.567 254.384 136.723C254.384 138.536 253.825 139.946 252.706 140.953C251.654 141.893 250.277 142.363 248.577 142.363C248.465 142.363 248.342 142.363 248.207 142.363C248.073 142.363 247.939 142.352 247.804 142.33C247.021 142.262 246.148 142.027 245.186 141.625C244.179 141.244 243.407 141.02 242.87 140.953L244.481 137.764C245.891 138.838 247.256 139.375 248.577 139.375C249.539 139.375 250.244 139.152 250.691 138.704C251.139 138.279 251.363 137.518 251.363 136.421V134.105C250.691 134.709 249.696 135.023 248.375 135.045C246.271 135.09 244.638 134.519 243.474 133.333C242.31 132.147 241.739 130.468 241.762 128.297C241.762 127.268 241.93 126.339 242.265 125.511C242.601 124.661 243.071 123.944 243.675 123.363C244.28 122.758 244.996 122.311 245.824 122.02C246.674 121.729 247.603 121.594 248.61 121.617C250.087 121.662 251.173 122.064 251.866 122.825L252.269 121.852H254.518ZM251.329 125.847C250.591 125.019 249.673 124.605 248.577 124.605C247.525 124.605 246.663 124.907 245.992 125.511C245.253 126.182 244.895 127.122 244.917 128.331C244.94 129.427 245.275 130.323 245.924 131.016C246.596 131.71 247.469 132.057 248.543 132.057C249.662 132.057 250.58 131.654 251.296 130.849C251.296 130.132 251.296 129.36 251.296 128.532C251.296 127.682 251.307 126.787 251.329 125.847Z" stroke="#372900"/>
<path d="M269.732 129.372H260.198C260.288 131.319 261.317 132.292 263.287 132.292C263.533 132.292 263.813 132.259 264.126 132.191C265.223 132.012 266.051 131.643 266.61 131.084L268.624 133.702C266.901 134.664 265.323 135.179 263.891 135.246C261.675 135.358 259.93 134.821 258.654 133.635C257.378 132.426 256.741 130.67 256.741 128.364C256.741 126.529 257.39 124.963 258.688 123.665C259.963 122.389 261.519 121.729 263.354 121.684C264.428 121.684 265.368 121.863 266.174 122.221C267.002 122.579 267.684 123.094 268.222 123.765C268.781 124.437 269.184 125.254 269.43 126.216C269.699 127.156 269.799 128.208 269.732 129.372ZM266.275 126.887C265.715 125.455 264.775 124.739 263.455 124.739C261.91 124.784 261.004 125.5 260.735 126.887H266.275Z" stroke="#372900"/>
<path d="M284.321 134.911H280.93L280.897 129.137C280.852 127.637 280.74 126.63 280.561 126.115C280.225 125.175 279.498 124.705 278.379 124.705C276.79 124.705 275.772 125.567 275.324 127.29C275.302 128.297 275.29 129.439 275.29 130.714C275.29 131.968 275.29 133.366 275.29 134.911H271.9C271.945 133.747 271.978 132.214 272.001 130.312C272.023 128.409 272.034 126.138 272.034 123.497C272.012 123.251 271.989 123.004 271.967 122.758C271.945 122.49 271.922 122.199 271.9 121.885H275.391C275.369 122.176 275.346 122.456 275.324 122.725C275.302 122.993 275.268 123.251 275.223 123.497C275.984 122.266 277.327 121.65 279.252 121.65C282.586 121.65 284.254 123.877 284.254 128.331V132.292C284.254 133.098 284.265 133.758 284.287 134.273C284.31 134.765 284.321 134.978 284.321 134.911Z" stroke="#372900"/>
<path d="M293.564 121.852V124.638H291.315C291.27 124.884 291.236 125.891 291.214 127.659C291.192 128.823 291.169 129.595 291.147 129.976C291.147 130.334 291.147 130.323 291.147 129.942C291.147 131.173 291.281 131.789 291.55 131.789C291.684 131.789 291.874 131.699 292.12 131.52C292.389 131.319 292.557 131.207 292.624 131.184C292.691 131.274 292.881 132.191 293.195 133.937C291.606 134.877 290.14 135.302 288.797 135.213C288.282 135.168 288.025 134.194 288.025 132.292C288.025 132.135 288.058 131.061 288.126 129.069C288.148 128.711 288.159 128.174 288.159 127.458C288.159 126.742 288.17 125.813 288.193 124.672H286.279C286.302 124.649 286.313 124.179 286.313 123.262V121.885H288.226C288.249 121.304 288.26 120.722 288.26 120.14C288.26 119.558 288.26 118.976 288.26 118.394L291.348 117.521V121.885C292.803 121.885 293.542 121.874 293.564 121.852Z" stroke="#372900"/>
<path d="M308.482 129.372H298.948C299.038 131.319 300.067 132.292 302.037 132.292C302.283 132.292 302.563 132.259 302.876 132.191C303.973 132.012 304.801 131.643 305.36 131.084L307.374 133.702C305.651 134.664 304.073 135.179 302.641 135.246C300.425 135.358 298.68 134.821 297.404 133.635C296.128 132.426 295.491 130.67 295.491 128.364C295.491 126.529 296.14 124.963 297.438 123.665C298.713 122.389 300.269 121.729 302.104 121.684C303.178 121.684 304.118 121.863 304.924 122.221C305.752 122.579 306.434 123.094 306.971 123.765C307.531 124.437 307.934 125.254 308.18 126.216C308.449 127.156 308.549 128.208 308.482 129.372ZM305.024 126.887C304.465 125.455 303.525 124.739 302.204 124.739C300.66 124.784 299.754 125.5 299.485 126.887H305.024Z" stroke="#372900"/>
<path d="M120.798 99.9418V56.972H102.267V99.9418H83.7361V42.4697C83.7361 34.8605 83.199 29.5788 82.1248 26.6247C81.14 23.581 78.9916 19.9106 75.6793 15.6137L91.793 4.33411C94.6576 6.21403 97.1194 9.70532 99.1784 14.808C101.237 19.8211 102.267 25.9085 102.267 33.0701V40.8584H120.798V5.94547H139.328V99.9418H120.798Z" stroke="#372900"/>
<path d="M151.438 27.5646H169.163V74.0256C169.163 78.5912 169.7 82.1272 170.774 84.6338C171.848 87.1404 173.549 89.3336 175.877 91.2135L161.106 101.553C154.66 96.4505 151.438 89.1993 151.438 79.7997V27.5646Z" stroke="#372900"/>
<path d="M237.334 33.0701V40.8584H241.362C242.884 40.8584 244.451 40.0527 246.062 38.4413C247.763 36.7404 249.016 35.1738 249.822 33.7415C250.717 32.2197 251.613 27.9675 252.508 20.9849C253.403 13.9128 253.851 8.89963 253.851 5.94547H272.381C272.381 9.43676 271.889 14.8975 270.904 22.3277C269.919 29.7579 269.024 34.3234 268.219 36.0243C266.876 38.9785 263.474 42.9621 258.013 47.9752C264.369 53.436 268.487 58.0463 270.367 61.8061C271.262 63.6861 272.157 69.3706 273.053 78.8597C274.037 88.2594 274.53 95.2867 274.53 99.9418H255.999C255.999 95.7343 255.551 89.1546 254.656 80.2025C253.851 71.161 253.045 65.9241 252.239 64.4917C249.464 59.4786 246.197 56.972 242.437 56.972H237.334V99.9418H218.803V41.1269C218.803 33.8758 218.266 28.8627 217.192 26.0875C216.207 23.2229 214.059 19.7316 210.747 15.6137L226.86 4.33411C229.725 6.21403 232.187 9.70532 234.246 14.808C236.305 19.8211 237.334 25.9085 237.334 33.0701Z" stroke="#372900"/>
<path d="M288.653 99.9418V5.94547C298.888 5.94547 307.184 14.2419 307.184 24.4761V89.9418C307.184 95.4646 302.707 99.9418 297.184 99.9418H288.653Z" stroke="#372900"/>
<path d="M69.7511 96.9352H28.8986C23.7321 96.9352 -2.38197 115.521 3.99716 107.484C10.3763 99.4468 10.3764 83.48 10.3764 78.4185V21.0167C10.3764 10.7902 18.6691 2.5 28.8986 2.5H83" stroke="#372900" stroke-width="5"/>
<path d="M72 97C72 98.3807 70.8807 99.5 69.5 99.5C68.1193 99.5 67 98.3807 67 97C67 95.6193 68.1193 94.5 69.5 94.5C70.8807 94.5 72 95.6193 72 97Z" fill="#372900"/>
<path d="M85.5 2.5C85.5 3.88071 84.3807 5 83 5C81.6193 5 80.5 3.88071 80.5 2.5C80.5 1.11929 81.6193 0 83 0C84.3807 0 85.5 1.11929 85.5 2.5Z" fill="#372900"/>
</svg>
