<svg width="170" height="118" viewBox="0 0 170 118" fill="none" xmlns="http://www.w3.org/2000/svg">
<path d="M164.287 62.2355C164.287 50.5075 156.979 41 147.963 41H75.3235C66.3083 41 59 50.5075 59 62.2355V83.471C59 95.199 66.3083 104.706 75.3235 104.706H146.184C147.335 104.706 148.446 105.1 149.349 105.814C153.912 109.421 168.279 120.428 170 117.448C166.85 122.904 164.46 86.1959 164.296 83.6136C164.289 83.511 164.287 83.4195 164.287 83.3167V62.2355Z" fill="#E44400"/>
<path d="M9.49987 22.6144C9.49987 11.208 17.6147 2.5 26.9999 2.5H116C125.385 2.5 133.5 11.208 133.5 22.6144V38.5H75.3235C69.8789 38.5 65.1189 41.3772 61.799 45.6961C58.4811 50.0124 56.5 55.8683 56.5 62.2355V65.3433H28.5915C27.0451 65.3433 25.5535 65.8125 24.2868 66.6869C21.7571 68.4329 15.9443 72.3624 10.5224 75.4412C8.68321 76.4856 6.93952 77.4028 5.41422 78.0999C6.1529 75.0991 6.79728 71.0781 7.34054 66.9677C8.59001 57.5141 9.37751 46.9964 9.4815 45.573C9.49524 45.3849 9.49987 45.2201 9.49987 45.0514V22.6144ZM75.3235 43.5H133.5V45.2289C133.5 56.6353 125.385 65.3433 116 65.3433H61.5V62.2355C61.5 56.8747 63.173 52.1128 65.7631 48.7433C68.3512 45.3765 71.753 43.5 75.3235 43.5ZM61.5 70.3433H116C128.706 70.3433 138.5 58.8017 138.5 45.2289V43.5H147.963C151.534 43.5 154.936 45.3765 157.524 48.7433C160.114 52.1128 161.787 56.8747 161.787 62.2355V83.3167C161.787 83.4645 161.791 83.6094 161.801 83.7719C161.883 85.0688 162.525 94.945 163.544 103.83C163.961 107.465 164.451 111.022 165.009 113.775C164.11 113.268 163.129 112.668 162.098 112.002C157.824 109.239 153.168 105.646 150.899 103.853C149.564 102.798 147.909 102.206 146.184 102.206H75.3235C71.753 102.206 68.3512 100.33 65.7631 96.9632C63.173 93.5937 61.5 88.8318 61.5 83.471V70.3433ZM168.102 115.923C168.159 116.111 168.216 116.287 168.274 116.451L167.835 116.198C167.837 116.195 167.839 116.192 167.84 116.188C167.884 116.129 167.97 116.029 168.102 115.923Z" stroke="#E44400" stroke-width="5"/>
</svg>
